<?xml version="1.0" encoding="utf-8"?>
<!-- Generator: Adobe Illustrator 25.3.1, SVG Export Plug-In . SVG Version: 6.00 Build 0)  -->
<svg version="1.1" id="Layer_1" xmlns="http://www.w3.org/2000/svg" xmlns:xlink="http://www.w3.org/1999/xlink" x="0px" y="0px"
	 width="215px" height="113.3858261px" viewBox="0 0 215 113.3858261" style="enable-background:new 0 0 215 113.3858261;"
	 xml:space="preserve">
<g>
	<path d="M145.555542,27.7377548c-0.3099976-0.210022-0.6699829-0.3499756-1.0900269-0.4400024
		c-0.4099731-0.0800171-0.8499756-0.1199951-1.3099976-0.1199951c-0.539978,0-1.0299683,0.039978-1.4599609,0.1199951
		c-0.4300537,0.0800171-0.8000488,0.2200317-1.1000366,0.4100342c-0.3099976,0.1999512-0.539978,0.4599609-0.7000122,0.7799683
		c-0.1599731,0.3300171-0.2399902,0.7399902-0.2399902,1.2299805c0,0.5,0.0900269,0.9100342,0.2700195,1.2400513
		c0.1799927,0.3299561,0.4299927,0.5999756,0.75,0.7999878c0.3200073,0.2099609,0.6799927,0.3499756,1.0999756,0.4400024
		c0.4299927,0.0799561,0.8699951,0.1199951,1.3500366,0.1199951c0.5199585,0,0.9899902-0.0400391,1.4099731-0.1199951
		c0.4299927-0.0800171,0.789978-0.2200317,1.1000366-0.4200439c0.2999878-0.1899414,0.5299683-0.4499512,0.6999512-0.7799683
		c0.1700439-0.3300171,0.25-0.7399902,0.25-1.2200317c0-0.5-0.0899658-0.9099731-0.2799683-1.2399902
		C146.1155396,28.2077866,145.8755493,27.937767,145.555542,27.7377548z"/>
	<path d="M147.9963379,14.0814438H55.3894043c-4.2207031,0-7.6422729,3.4215698-7.6422729,7.6422729v26.1630249
		c0,4.2208252,3.4215698,7.642395,7.6422729,7.642395h92.6069336c4.2207642,0,7.642334-3.4215698,7.642334-7.642395V21.7237167
		C155.6386719,17.5030136,152.2171021,14.0814438,147.9963379,14.0814438z M65.3935547,40.2290878
		c-0.3154297,0.6396484-0.7431641,1.1733398-1.2827148,1.6005859c-0.5400391,0.4277344-1.1713867,0.7495117-1.8935547,0.965332
		c-0.7226562,0.2163086-1.4951172,0.3242188-2.3168945,0.3242188c-0.5566406,0-1.0737305-0.0458984-1.5512695-0.137207
		s-0.8989258-0.2011719-1.2641602-0.3300781c-0.3657227-0.128418-0.6708984-0.2636719-0.9155273-0.4047852
		c-0.2451172-0.1411133-0.421875-0.265625-0.5292969-0.3735352c-0.1083984-0.1079102-0.1850586-0.2636719-0.2304688-0.4672852
		c-0.0458984-0.2036133-0.0688477-0.4960938-0.0688477-0.878418c0-0.2573242,0.0083008-0.4731445,0.0249023-0.6474609
		s0.0439453-0.3154297,0.0810547-0.4238281c0.0375977-0.1079102,0.0874023-0.1845703,0.1494141-0.2304688
		c0.0625-0.0454102,0.1347656-0.0683594,0.2182617-0.0683594c0.1162109,0,0.2802734,0.0683594,0.4916992,0.2055664
		c0.2119141,0.137207,0.4838867,0.2885742,0.815918,0.4545898c0.3320312,0.1665039,0.7290039,0.3178711,1.1899414,0.4545898
		c0.4609375,0.137207,0.9941406,0.2055664,1.6005859,0.2055664c0.3984375,0,0.7558594-0.0473633,1.0712891-0.1430664
		c0.3154297-0.0952148,0.5834961-0.2304688,0.8037109-0.4047852c0.2197266-0.1743164,0.3876953-0.3901367,0.5043945-0.6479492
		c0.1162109-0.2573242,0.1743164-0.5439453,0.1743164-0.859375c0-0.3652344-0.0996094-0.6791992-0.2988281-0.9404297
		c-0.1992188-0.2617188-0.4589844-0.4941406-0.7788086-0.6977539s-0.6831055-0.3945312-1.0898438-0.5732422
		c-0.4072266-0.1782227-0.8266602-0.3671875-1.2583008-0.5664062c-0.4316406-0.199707-0.8510742-0.4257812-1.2578125-0.6791992
		c-0.4072266-0.2529297-0.7705078-0.5561523-1.090332-0.9091797s-0.5791016-0.7700195-0.7783203-1.2519531
		c-0.1992188-0.4814453-0.2988281-1.059082-0.2988281-1.7314453c0-0.7724609,0.1430664-1.4511719,0.4296875-2.0366211
		c0.2861328-0.5854492,0.6723633-1.0712891,1.1582031-1.4575195s1.059082-0.6748047,1.7192383-0.8657227
		s1.3598633-0.2866211,2.0991211-0.2866211c0.3818359,0,0.7636719,0.0292969,1.1459961,0.0874023
		c0.3818359,0.0581055,0.7387695,0.1367188,1.0712891,0.2363281c0.3320312,0.0996094,0.6269531,0.2119141,0.8842773,0.3364258
		s0.4277344,0.2285156,0.5107422,0.3115234s0.1391602,0.1538086,0.1679688,0.2119141
		c0.0292969,0.0581055,0.0541992,0.1347656,0.0751953,0.2304688c0.0205078,0.0952148,0.0351562,0.2158203,0.043457,0.3608398
		c0.0083008,0.1455078,0.012207,0.3261719,0.012207,0.5419922c0,0.2412109-0.0058594,0.4443359-0.0185547,0.6103516
		c-0.012207,0.1665039-0.0332031,0.3032227-0.0620117,0.4111328c-0.0292969,0.1079102-0.0708008,0.1870117-0.125,0.2368164
		c-0.0537109,0.0498047-0.1264648,0.074707-0.2177734,0.074707s-0.2368164-0.0581055-0.4360352-0.1743164
		s-0.4443359-0.2431641-0.7348633-0.3798828c-0.2910156-0.137207-0.6274414-0.2617188-1.0092773-0.3740234
		c-0.3818359-0.1118164-0.8012695-0.1679688-1.2578125-0.1679688c-0.3574219,0-0.6689453,0.043457-0.9345703,0.1308594
		c-0.265625,0.0869141-0.487793,0.2075195-0.6665039,0.3613281c-0.1787109,0.1533203-0.3110352,0.3383789-0.3984375,0.5541992
		s-0.1308594,0.4443359-0.1308594,0.6850586c0,0.3569336,0.0976562,0.6665039,0.2929688,0.9282227
		c0.1948242,0.2612305,0.456543,0.4941406,0.784668,0.6972656c0.328125,0.2036133,0.699707,0.3945312,1.1147461,0.5732422
		s0.8388672,0.3671875,1.2705078,0.5668945c0.4321289,0.1992188,0.8554688,0.425293,1.2709961,0.6787109
		c0.4150391,0.253418,0.784668,0.5566406,1.1083984,0.9091797c0.3242188,0.3530273,0.5854492,0.7685547,0.784668,1.2460938
		c0.199707,0.4775391,0.2993164,1.0400391,0.2993164,1.6875C65.8671875,38.8462753,65.7089844,39.5899277,65.3935547,40.2290878z
		 M71.6591797,42.3843613c0,0.0830078-0.0268555,0.1577148-0.0810547,0.2241211
		c-0.0537109,0.0664062-0.1430664,0.1206055-0.2675781,0.1616211c-0.1245117,0.0419922-0.2910156,0.0751953-0.4985352,0.1000977
		s-0.4731445,0.0371094-0.796875,0.0371094c-0.315918,0-0.5795898-0.012207-0.7910156-0.0371094
		c-0.2119141-0.0249023-0.3798828-0.0581055-0.5048828-0.1000977c-0.1245117-0.0410156-0.2138672-0.0952148-0.2675781-0.1616211
		c-0.0541992-0.0664062-0.0810547-0.1411133-0.0810547-0.2241211V27.161705c0-0.0830078,0.0268555-0.1577148,0.0810547-0.2241211
		c0.0537109-0.0664062,0.1450195-0.1201172,0.2739258-0.1621094c0.1289062-0.0415039,0.296875-0.074707,0.5043945-0.0996094
		s0.4692383-0.0371094,0.7851562-0.0371094c0.3237305,0,0.5893555,0.012207,0.796875,0.0371094
		s0.3740234,0.0581055,0.4985352,0.0996094c0.1245117,0.0419922,0.2138672,0.0957031,0.2675781,0.1621094
		c0.0541992,0.0664062,0.0810547,0.1411133,0.0810547,0.2241211V42.3843613z M88.4638672,41.6866074
		c0,0.190918-0.0332031,0.3613281-0.0996094,0.5107422s-0.1557617,0.2739258-0.2675781,0.3735352
		c-0.1123047,0.0996094-0.2451172,0.1723633-0.3989258,0.2182617c-0.1538086,0.0454102-0.3095703,0.0683594-0.4667969,0.0683594
		h-1.3955078c-0.2905273,0-0.5415039-0.0288086-0.753418-0.0874023c-0.2119141-0.0576172-0.4072266-0.1635742-0.5854492-0.3173828
		c-0.1787109-0.1538086-0.3510742-0.3613281-0.5170898-0.6230469c-0.1660156-0.2612305-0.3530273-0.5996094-0.5605469-1.0151367
		l-4.0112305-7.5366211c-0.2324219-0.4482422-0.4692383-0.9321289-0.7099609-1.4511719
		c-0.2407227-0.5185547-0.4570312-1.0234375-0.6479492-1.5131836h-0.0249023
		c0.0332031,0.5976562,0.0581055,1.1938477,0.074707,1.7875977s0.0249023,1.2060547,0.0249023,1.8374023v8.4331055
		c0,0.0830078-0.0229492,0.1577148-0.0683594,0.2241211c-0.0458984,0.0668945-0.1245117,0.1225586-0.2368164,0.168457
		c-0.1118164,0.0454102-0.2636719,0.0810547-0.4545898,0.105957s-0.4360352,0.0371094-0.7348633,0.0371094
		c-0.2905273,0-0.5317383-0.012207-0.7226562-0.0371094s-0.340332-0.0605469-0.4482422-0.105957
		c-0.1079102-0.0458984-0.1826172-0.1015625-0.2241211-0.168457c-0.0419922-0.0664062-0.0625-0.1411133-0.0625-0.2241211V27.8843613
		c0-0.3901367,0.1142578-0.6831055,0.3427734-0.878418c0.2280273-0.1948242,0.5083008-0.2924805,0.8408203-0.2924805h1.7563477
		c0.3154297,0,0.5810547,0.0268555,0.7973633,0.0810547c0.2158203,0.0537109,0.4086914,0.1430664,0.5791016,0.2675781
		c0.1699219,0.1245117,0.3300781,0.296875,0.4794922,0.5170898s0.3032227,0.4921875,0.4609375,0.815918l3.1391602,5.8920898
		c0.1826172,0.3569336,0.3632812,0.7080078,0.5419922,1.0527344c0.1782227,0.3447266,0.3505859,0.6894531,0.5170898,1.0336914
		c0.1660156,0.3447266,0.3276367,0.6831055,0.4858398,1.0151367c0.1572266,0.3325195,0.3110352,0.6645508,0.4609375,0.996582
		h0.012207c-0.0249023-0.5810547-0.043457-1.1875-0.0561523-1.8183594c-0.012207-0.6313477-0.0185547-1.2333984-0.0185547-1.8066406
		v-7.5610352c0-0.0830078,0.0249023-0.1577148,0.074707-0.2246094c0.0498047-0.065918,0.1328125-0.1245117,0.2490234-0.1743164
		s0.2700195-0.0849609,0.4609375-0.105957c0.190918-0.0205078,0.4360352-0.0307617,0.7348633-0.0307617
		c0.2822266,0,0.519043,0.0102539,0.7104492,0.0307617c0.190918,0.0209961,0.3378906,0.0561523,0.4418945,0.105957
		s0.1762695,0.1083984,0.2182617,0.1743164c0.0415039,0.0668945,0.0620117,0.1416016,0.0620117,0.2246094V41.6866074z
		 M104.8759766,29.8399277c-0.0214844,0.1743164-0.0498047,0.3134766-0.0878906,0.4174805
		c-0.0371094,0.1040039-0.0830078,0.1762695-0.1367188,0.2177734c-0.0537109,0.0419922-0.1181641,0.0625-0.1933594,0.0625
		c-0.1074219,0-0.2822266-0.074707-0.5224609-0.2241211c-0.2412109-0.1499023-0.5615234-0.3115234-0.9594727-0.4858398
		c-0.3984375-0.1743164-0.8740234-0.3364258-1.4262695-0.4858398S100.355957,29.1172714,99.625,29.1172714
		c-0.7802734,0-1.4863281,0.1352539-2.1176758,0.4052734c-0.6308594,0.2700195-1.1708984,0.6518555-1.6191406,1.1459961
		c-0.4487305,0.4941406-0.793457,1.0878906-1.0341797,1.78125s-0.3608398,1.4594727-0.3608398,2.2983398
		c0,0.921875,0.1220703,1.7333984,0.3671875,2.4350586c0.2451172,0.7021484,0.5874023,1.2895508,1.027832,1.7626953
		c0.4399414,0.4736328,0.9692383,0.8305664,1.5883789,1.0712891c0.6181641,0.2412109,1.3017578,0.3613281,2.0488281,0.3613281
		c0.3657227,0,0.7265625-0.0415039,1.0839844-0.1245117c0.3569336-0.0830078,0.6889648-0.2075195,0.996582-0.3735352v-3.7373047
		h-3.0522461c-0.1494141,0-0.265625-0.0932617-0.3486328-0.2802734s-0.1245117-0.5043945-0.1245117-0.953125
		c0-0.2319336,0.0102539-0.4272461,0.03125-0.5854492c0.0205078-0.1572266,0.0517578-0.2841797,0.0932617-0.3798828
		c0.0415039-0.0952148,0.0913086-0.1660156,0.1494141-0.2114258c0.0581055-0.0458984,0.1245117-0.0688477,0.1992188-0.0688477
		h5.4433594c0.1328125,0,0.2509766,0.0229492,0.3554688,0.0688477c0.1035156,0.0454102,0.1953125,0.1142578,0.2734375,0.2055664
		c0.0791016,0.0913086,0.1396484,0.2011719,0.1806641,0.3300781c0.0419922,0.1289062,0.0625,0.2758789,0.0625,0.4418945v6.4155273
		c0,0.2490234-0.0429688,0.4672852-0.1308594,0.6538086c-0.0869141,0.1870117-0.265625,0.3344727-0.5351562,0.4423828
		c-0.2705078,0.1079102-0.6044922,0.2202148-1.0029297,0.3364258s-0.8115234,0.2158203-1.2392578,0.2988281
		s-0.859375,0.1450195-1.2954102,0.1870117c-0.4360352,0.0415039-0.8745117,0.0620117-1.3144531,0.0620117
		c-1.2871094,0-2.4394531-0.1845703-3.456543-0.5541992c-1.0175781-0.3696289-1.8793945-0.9052734-2.5849609-1.6069336
		c-0.7060547-0.7016602-1.2456055-1.5571289-1.6196289-2.565918c-0.3735352-1.0092773-0.5605469-2.1533203-0.5605469-3.4321289
		c0-1.3203125,0.199707-2.5058594,0.5981445-3.5566406c0.3984375-1.050293,0.9633789-1.9428711,1.6943359-2.6782227
		c0.7304688-0.7348633,1.612793-1.2973633,2.6469727-1.6875c1.0336914-0.390625,2.1860352-0.5859375,3.456543-0.5859375
		c0.6977539,0,1.3330078,0.0483398,1.90625,0.1435547c0.5727539,0.0957031,1.0732422,0.2119141,1.5009766,0.3486328
		c0.4277344,0.137207,0.7822266,0.284668,1.0644531,0.4423828s0.4794922,0.2949219,0.5917969,0.4111328
		s0.1933594,0.2802734,0.2431641,0.4916992c0.0498047,0.2119141,0.0742188,0.5253906,0.0742188,0.940918
		C104.90625,29.4580917,104.8964844,29.6656113,104.8759766,29.8399277z M117.0585938,42.0913925
		c-0.0205078,0.1704102-0.0517578,0.3115234-0.09375,0.4233398c-0.0410156,0.1123047-0.0927734,0.1933594-0.1552734,0.2431641
		s-0.1357422,0.074707-0.2177734,0.074707h-7.3876953c-0.2734375,0-0.5039062-0.0810547-0.6914062-0.2426758
		c-0.1865234-0.1621094-0.2802734-0.4257812-0.2802734-0.7910156V27.161705c0-0.0830078,0.0273438-0.1577148,0.0810547-0.2241211
		s0.1435547-0.1201172,0.2675781-0.1621094c0.125-0.0415039,0.2929688-0.074707,0.5048828-0.0996094
		s0.4755859-0.0371094,0.7910156-0.0371094c0.3242188,0,0.5898438,0.012207,0.796875,0.0371094
		c0.2080078,0.0249023,0.3740234,0.0581055,0.4990234,0.0996094c0.1240234,0.0419922,0.2138672,0.0957031,0.2675781,0.1621094
		s0.0810547,0.1411133,0.0810547,0.2241211v12.9677734h5.0703125c0.0820312,0,0.1552734,0.0229492,0.2177734,0.0683594
		c0.0625,0.0458984,0.1142578,0.1206055,0.1552734,0.2241211c0.0419922,0.1040039,0.0732422,0.2412109,0.09375,0.4111328
		c0.0205078,0.1704102,0.03125,0.3798828,0.03125,0.6293945C117.0898438,41.7115097,117.0791016,41.9214706,117.0585938,42.0913925z
		 M128.5439453,42.1538925c-0.0214844,0.1616211-0.0517578,0.2924805-0.09375,0.3920898s-0.09375,0.1723633-0.1552734,0.2182617
		c-0.0625,0.0454102-0.1308594,0.0683594-0.2060547,0.0683594h-8.0966797c-0.2744141,0-0.5048828-0.0810547-0.6914062-0.2426758
		c-0.1865234-0.1621094-0.2802734-0.4257812-0.2802734-0.7910156V27.7471542c0-0.3652344,0.09375-0.6289062,0.2802734-0.7910156
		c0.1865234-0.1616211,0.4169922-0.2426758,0.6914062-0.2426758h8.046875c0.0751953,0,0.1416016,0.0205078,0.1992188,0.0620117
		c0.0585938,0.0419922,0.1083984,0.1142578,0.1494141,0.2182617c0.0419922,0.1040039,0.0732422,0.2363281,0.09375,0.3984375
		s0.03125,0.3676758,0.03125,0.6166992c0,0.2324219-0.0107422,0.4296875-0.03125,0.5917969
		c-0.0205078,0.1616211-0.0517578,0.2924805-0.09375,0.3920898c-0.0410156,0.0996094-0.0908203,0.1728516-0.1494141,0.2182617
		c-0.0576172,0.0458984-0.1240234,0.0683594-0.1992188,0.0683594h-5.7548828v3.9365234h4.8701172
		c0.0751953,0,0.1435547,0.0229492,0.2060547,0.0683594c0.0625,0.0458984,0.1142578,0.1166992,0.1552734,0.2119141
		c0.0419922,0.0957031,0.0732422,0.2241211,0.09375,0.3862305c0.0205078,0.1616211,0.03125,0.359375,0.03125,0.5917969
		c0,0.2407227-0.0107422,0.4399414-0.03125,0.5976562s-0.0517578,0.284668-0.09375,0.3798828
		c-0.0410156,0.0957031-0.0927734,0.1640625-0.1552734,0.2055664c-0.0625,0.0419922-0.1308594,0.0625-0.2060547,0.0625h-4.8701172
		v4.546875h5.8046875c0.0751953,0,0.1435547,0.0229492,0.2060547,0.0683594
		c0.0615234,0.0458984,0.1132812,0.1181641,0.1552734,0.2177734s0.0722656,0.2304688,0.09375,0.3925781
		c0.0205078,0.1621094,0.03125,0.3632812,0.03125,0.6040039C128.5751953,41.7906113,128.5644531,41.9917831,128.5439453,42.1538925z
		 M148.0755005,43.8277817c-0.0199585,0.1199951-0.039978,0.2099609-0.0699463,0.2799683
		c-0.0300293,0.0599976-0.0700073,0.1000366-0.1100464,0.1300049c-0.039978,0.0200195-0.0799561,0.039978-0.1300049,0.039978
		h-8.8899536c-0.1199951,0-0.2300415-0.0199585-0.3200073-0.0599976c-0.0900269-0.039978-0.1699829-0.0999756-0.2300415-0.1699829
		c-0.0599976-0.0700073-0.0999756-0.1499634-0.1299438-0.2399902c-0.0300293-0.0999756-0.0400391-0.1900024-0.0400391-0.289978
		v-0.8600464c0-0.1699829,0.0200195-0.3299561,0.0499878-0.4599609c0.0400391-0.1300049,0.1000366-0.25,0.2000122-0.3599854
		c0.0900269-0.1100464,0.2200317-0.210022,0.3800049-0.3100586c0.1600342-0.1099854,0.3699951-0.2199707,0.6199951-0.3499756
		l4.6300049-2.460022c0.2700195-0.1399536,0.5700073-0.289978,0.8900146-0.4400024
		c0.3099976-0.1399536,0.6199951-0.2799683,0.9199829-0.3899536v-0.0200195
		c-0.3599854,0.0200195-0.7299805,0.039978-1.0899658,0.0499878c-0.3699951,0.0100098-0.7400513,0.0100098-1.1300049,0.0100098
		h-5.1700439c-0.0599976,0-0.0999756-0.0100098-0.1399536-0.039978c-0.0400391-0.0300293-0.0800171-0.0800171-0.1100464-0.1500244
		c-0.0199585-0.0599976-0.0499878-0.1599731-0.0599976-0.2700195c-0.0199585-0.1199951-0.0199585-0.2699585-0.0199585-0.4499512
		s0-0.3300171,0.0199585-0.4500122c0.0100098-0.1199951,0.0400391-0.210022,0.0599976-0.2700195
		c0.0300293-0.0700073,0.0700073-0.1199951,0.1100464-0.1400146c0.039978-0.0299683,0.0799561-0.039978,0.1399536-0.039978
		h8.8900146c0.2299805,0,0.4100342,0.0700073,0.5300293,0.210022c0.1199951,0.1399536,0.1799927,0.3099976,0.1799927,0.5199585
		v1.0700073c0,0.2000122-0.0100098,0.3599854-0.0499878,0.4899902c-0.0300293,0.1400146-0.0800171,0.2600098-0.1600342,0.3600464
		c-0.0800171,0.0999756-0.1799927,0.1999512-0.3200073,0.289978c-0.1300049,0.0999756-0.2999878,0.1900024-0.5,0.289978
		l-3.6099854,1.9200439c-0.2199707,0.1199951-0.4400024,0.2299805-0.6500244,0.3299561
		c-0.2099609,0.1100464-0.4199829,0.2200317-0.6299438,0.3200073c-0.2200317,0.1000366-0.4200439,0.2000122-0.6300049,0.2999878
		c-0.2000122,0.1000366-0.4000244,0.1900024-0.6100464,0.2800293v0.0100098
		c0.3600464-0.0100098,0.7300415-0.0300293,1.1199951-0.0300293c0.3800049-0.0100098,0.75-0.0100098,1.1100464-0.0100098h4.6399536
		c0.0500488,0,0.0900269,0.0100098,0.1300049,0.0400391c0.0400391,0.0299683,0.0800171,0.0800171,0.1100464,0.1499634
		c0.0299683,0.0800171,0.0499878,0.1700439,0.0699463,0.2900391c0.0100098,0.1099854,0.0100098,0.2600098,0.0100098,0.4500122
		C148.0855103,43.5677719,148.0855103,43.7177353,148.0755005,43.8277817z M147.9355469,31.8277817
		c-0.2000122,0.5700073-0.5,1.0499878-0.9200439,1.4299927c-0.4099731,0.3900146-0.9299927,0.6799927-1.5599976,0.8800049
		c-0.6300049,0.1900024-1.3699951,0.289978-2.2299805,0.289978c-0.8200073,0-1.5499878-0.0999756-2.2000122-0.2999878
		c-0.6499634-0.210022-1.1900024-0.5100098-1.6499634-0.9100342c-0.4500122-0.4099731-0.7900391-0.8999634-1.0300293-1.5
		c-0.2299805-0.5899658-0.3499756-1.2799683-0.3499756-2.0599976c0-0.7699585,0.0999756-1.4400024,0.2999878-2.0099487
		c0.2000122-0.5800171,0.5100098-1.0500488,0.9199829-1.4400024c0.4100342-0.3800049,0.9400024-0.6600342,1.5700073-0.8600464
		c0.6400146-0.1900024,1.4000244-0.2799683,2.2700195-0.2799683c0.7999878,0,1.5199585,0.0999756,2.1599731,0.2999878
		c0.6400146,0.210022,1.1799927,0.5100098,1.6300049,0.9099731c0.4500122,0.4100342,0.7900391,0.9000244,1.0300293,1.5
		c0.2399902,0.5900269,0.3599854,1.2800293,0.3599854,2.0700073
		C148.2355347,30.5877914,148.1355591,31.2577744,147.9355469,31.8277817z"/>
	<path d="M147.99646,62.9698105H55.3894043c-4.2207031,0-7.6422729,3.4215698-7.6422729,7.642334v26.1630859
		c0,4.2206421,3.4215698,7.6422729,7.6422729,7.6422729H147.99646c4.2206421,0,7.6422119-3.4216309,7.6422119-7.6422729V70.6121445
		C155.6386719,66.3913803,152.2171021,62.9698105,147.99646,62.9698105z M151.7249756,96.7752304
		c0,2.0559692-1.6726074,3.7285156-3.7285156,3.7285156H55.3894043c-2.0559692,0-3.7285767-1.6725464-3.7285767-3.7285156
		V70.6121445c0-2.0559082,1.6726074-3.7286377,3.7285767-3.7286377H147.99646c2.0559082,0,3.7285156,1.6727295,3.7285156,3.7286377
		V96.7752304z"/>
	<path d="M146.8482666,72.4153061c-0.4485474-0.40271-0.9923706-0.7047119-1.6323853-0.909668
		c-0.6390991-0.203125-1.3590698-0.305603-2.1590576-0.305603c-0.8710327,0-1.6260986,0.0952759-2.2625122,0.2875977
		c-0.6372681,0.1906128-1.1622314,0.4764404-1.5748291,0.859375c-0.4125366,0.3828735-0.7199707,0.859314-0.9213257,1.4328003
		s-0.302002,1.2458496-0.302002,2.0152588c0,0.7784424,0.1186523,1.4651489,0.355957,2.0584106
		c0.2363892,0.5950928,0.5806274,1.0930786,1.0318604,1.4957886c0.4512329,0.4026489,0.9995728,0.7047119,1.6467896,0.9096069
		c0.6471558,0.203186,1.3815308,0.3056641,2.2022095,0.3056641c0.8557739,0,1.5982056-0.098877,2.2283325-0.2948608
		c0.6292114-0.1959229,1.1496582-0.4871826,1.5631714-0.8718872c0.4125366-0.3847046,0.7182007-0.862915,0.9168091-1.4364014
		c0.1986694-0.5734863,0.2984619-1.2350464,0.2984619-1.9829712c0-0.7855835-0.1204834-1.4741211-0.3595581-2.0692139
		C147.6401978,73.3160019,147.296814,72.8180161,146.8482666,72.4153061z M146.3394775,77.1325912
		c-0.1653442,0.3253784-0.3999634,0.5860596-0.7028809,0.7838135c-0.3029175,0.1959839-0.6679077,0.3344116-1.0930176,0.4152832
		c-0.4251709,0.0827026-0.8980103,0.1222534-1.4175415,0.1222534c-0.4746094,0-0.9213867-0.0413208-1.342041-0.1258545
		c-0.4206543-0.0844727-0.7883301-0.2282715-1.1047363-0.4314575c-0.3154907-0.204895-0.5653687-0.4710083-0.7487183-0.8035889
		c-0.1834106-0.3307495-0.2750854-0.7424316-0.2750854-1.2368164s0.0800171-0.9060669,0.2409058-1.2315063
		c0.1599731-0.3253784,0.3936768-0.5860596,0.6993408-0.7802124c0.305603-0.1923218,0.6732178-0.3307495,1.1046753-0.4116821
		c0.430603-0.0827026,0.9159546-0.1222534,1.4561768-0.1222534c0.4629517,0,0.9025269,0.0413818,1.3178101,0.1258545
		c0.4152222,0.0844727,0.7783813,0.2283325,1.0894165,0.4314575s0.559082,0.4710083,0.7451782,0.8035889
		c0.1860352,0.3308105,0.279541,0.7424927,0.279541,1.2368774C146.588501,76.3973007,146.5057983,76.8054428,146.3394775,77.1325912
		z"/>
	<path d="M147.4289551,82.2544174h-8.9663086c-0.0557251,0-0.104248,0.0161743-0.1447144,0.0485229
		c-0.0413818,0.0341797-0.0755005,0.0880737-0.1033936,0.1654053c-0.027832,0.0755005-0.050293,0.1797485-0.0656128,0.3092041
		c-0.0152588,0.1294556-0.0224609,0.2912598-0.0224609,0.4854126c0,0.1977539,0.0072021,0.3613281,0.0224609,0.4889526
		c0.0153198,0.1276855,0.0377808,0.2301636,0.0656128,0.3092041c0.0278931,0.0791016,0.0620117,0.1348877,0.1033936,0.1654053
		c0.0404663,0.0305786,0.0889893,0.0449829,0.1447144,0.0449829h3.6845093v3.0346069
		c0,0.0467529,0.0143433,0.0863037,0.0422363,0.1222534s0.074585,0.0682983,0.1411133,0.0952759
		c0.0665283,0.0287476,0.1501465,0.0485229,0.2525635,0.0610962c0.1016235,0.0125732,0.229248,0.0197754,0.3820801,0.0197754
		c0.152771,0,0.2803955-0.0072021,0.382019-0.0197754c0.102478-0.0125732,0.1833496-0.0323486,0.2444458-0.0610962
		c0.0611572-0.0269775,0.1043091-0.0593262,0.1303711-0.0952759c0.0251465-0.0359497,0.0377197-0.0755005,0.0377197-0.1222534
		v-3.0346069h2.6607056v3.2341309c0,0.0449219,0.0152588,0.0863037,0.0458374,0.1222534
		c0.0305786,0.0341797,0.076416,0.0665283,0.1375122,0.0952759c0.0611572,0.0269775,0.1438599,0.0485229,0.2481079,0.0611572
		c0.104248,0.0125732,0.2337036,0.0179443,0.3865356,0.0179443c0.152771,0,0.2822266-0.0053711,0.3892212-0.0179443
		c0.1069336-0.0126343,0.1923218-0.0341797,0.2561646-0.0611572c0.0637817-0.0287476,0.1096802-0.0610962,0.1375122-0.0952759
		c0.0278931-0.0359497,0.0422363-0.0773315,0.0422363-0.1222534v-4.656189c0-0.1671753-0.0494385-0.3092041-0.1491699-0.4242554
		C147.8154907,82.3101425,147.6536865,82.2544174,147.4289551,82.2544174z"/>
	<path d="M147.4289551,89.4400253h-8.9663086c-0.0557251,0-0.104248,0.0161743-0.1447144,0.0485229
		c-0.0413818,0.0341797-0.0755005,0.0881348-0.1033936,0.1654053c-0.027832,0.0755005-0.050293,0.1798096-0.0656128,0.3092041
		c-0.0152588,0.1294556-0.0224609,0.2912598-0.0224609,0.4854126c0,0.1977539,0.0072021,0.3613281,0.0224609,0.4890137
		c0.0153198,0.1276245,0.0377808,0.2301025,0.0656128,0.3092041c0.0278931,0.0791016,0.0620117,0.1348267,0.1033936,0.1654053
		c0.0404663,0.0305176,0.0889893,0.0449219,0.1447144,0.0449219h3.6845093v3.0346069
		c0,0.0467529,0.0143433,0.0863037,0.0422363,0.1222534s0.074585,0.0682983,0.1411133,0.0952759
		c0.0665283,0.0287476,0.1501465,0.0485229,0.2525635,0.0610962c0.1016235,0.0126343,0.229248,0.0197754,0.3820801,0.0197754
		c0.152771,0,0.2803955-0.0071411,0.382019-0.0197754c0.102478-0.0125732,0.1833496-0.0323486,0.2444458-0.0610962
		c0.0611572-0.0269775,0.1043091-0.0593262,0.1303711-0.0952759c0.0251465-0.0359497,0.0377197-0.0755005,0.0377197-0.1222534
		v-3.0346069h2.6607056v3.2341309c0,0.0449829,0.0152588,0.0863037,0.0458374,0.1222534
		c0.0305786,0.0341797,0.076416,0.0665283,0.1375122,0.0952759c0.0611572,0.0269775,0.1438599,0.048584,0.2481079,0.0611572
		s0.2337036,0.0179443,0.3865356,0.0179443c0.152771,0,0.2822266-0.0053711,0.3892212-0.0179443
		c0.1069336-0.0125732,0.1923218-0.0341797,0.2561646-0.0611572c0.0637817-0.0287476,0.1096802-0.0610962,0.1375122-0.0952759
		c0.0278931-0.0359497,0.0422363-0.0772705,0.0422363-0.1222534v-4.656189c0-0.1671753-0.0494385-0.3092041-0.1491699-0.4242554
		C147.8154907,89.4957504,147.6536865,89.4400253,147.4289551,89.4400253z"/>
	<path d="M64.590332,78.6665878c-0.6088867-0.5869141-1.3583984-1.0302734-2.2475586-1.3291016
		c-0.8896484-0.2988281-1.9731445-0.4482422-3.25-0.4482422h-3.6762695c-0.2436523,0-0.4482422,0.0722656-0.6142578,0.2158203
		c-0.1660156,0.1445312-0.2495117,0.3789062-0.2495117,0.703125v12.4902344c0,0.3251953,0.0834961,0.5595703,0.2495117,0.703125
		c0.1660156,0.1445312,0.3706055,0.2158203,0.6142578,0.2158203h3.421875c1.2695312,0,2.3637695-0.1376953,3.2827148-0.4150391
		c0.9194336-0.2763672,1.699707-0.7099609,2.3422852-1.3007812c0.6420898-0.5908203,1.1347656-1.3525391,1.4780273-2.2871094
		c0.3432617-0.9335938,0.5146484-2.0576172,0.5146484-3.3710938c0-1.1367188-0.1586914-2.1376953-0.4760742-3.0009766
		S65.199707,79.2535019,64.590332,78.6665878z M63.1733398,86.1128769
		c-0.1811523,0.6201172-0.4541016,1.1386719-0.8193359,1.5556641c-0.3657227,0.4169922-0.8212891,0.7294922-1.3676758,0.9355469
		c-0.5463867,0.2070312-1.2182617,0.3105469-2.0151367,0.3105469h-1.5170898v-9.7441406h1.4726562
		c0.8930664,0,1.6147461,0.1201172,2.1645508,0.359375c0.5498047,0.2402344,1.0004883,0.5742188,1.3510742,1.0029297
		c0.3505859,0.4277344,0.6049805,0.9335938,0.7641602,1.5166016c0.1586914,0.5830078,0.237793,1.2138672,0.237793,1.8935547
		C63.4443359,84.7691269,63.3540039,85.4927597,63.1733398,86.1128769z"/>
	<path d="M80.0478516,78.3951035c-0.5571289-0.5976562-1.2509766-1.0410156-2.081543-1.328125
		c-0.8305664-0.2880859-1.7880859-0.4326172-2.8735352-0.4326172c-1.1367188,0-2.1352539,0.1738281-2.9951172,0.5205078
		c-0.8598633,0.3476562-1.581543,0.8457031-2.1645508,1.4951172c-0.5834961,0.6494141-1.0224609,1.4375-1.3178711,2.3642578
		c-0.2954102,0.9257812-0.4428711,1.96875-0.4428711,3.1279297c0,1.2617188,0.1386719,2.3544922,0.4155273,3.2773438
		c0.2763672,0.9228516,0.6918945,1.6835938,1.2456055,2.28125s1.2456055,1.0429688,2.0761719,1.3339844
		c0.8305664,0.2919922,1.8027344,0.4375,2.9174805,0.4375c1.1293945,0,2.1240234-0.171875,2.984375-0.5146484
		c0.8598633-0.34375,1.581543-0.8417969,2.1645508-1.4951172s1.0224609-1.4482422,1.3178711-2.3857422
		c0.2949219-0.9375,0.4428711-2.0009766,0.4428711-3.1894531c0-1.2402344-0.1425781-2.3154297-0.4262695-3.2275391
		C81.0258789,79.7476425,80.6054688,78.9927597,80.0478516,78.3951035z M78.4980469,85.9859238
		c-0.1220703,0.6083984-0.3305664,1.1425781-0.6259766,1.5996094c-0.2949219,0.4580078-0.6826172,0.8193359-1.1625977,1.0849609
		c-0.4799805,0.2666016-1.0776367,0.3994141-1.793457,0.3994141c-0.7163086,0-1.3105469-0.1162109-1.7827148-0.3496094
		c-0.4726562-0.2324219-0.8491211-0.5703125-1.1298828-1.0126953c-0.2802734-0.4433594-0.4794922-0.9765625-0.5976562-1.6005859
		c-0.1181641-0.6230469-0.1772461-1.3261719-0.1772461-2.109375c0-0.6708984,0.0610352-1.3076172,0.1826172-1.9091797
		c0.1220703-0.6015625,0.3305664-1.1279297,0.6259766-1.578125c0.2949219-0.4501953,0.6826172-0.8105469,1.1625977-1.0800781
		c0.4794922-0.2695312,1.0776367-0.4042969,1.793457-0.4042969c0.7089844,0,1.2993164,0.1201172,1.7719727,0.3603516
		c0.472168,0.2402344,0.8505859,0.5791016,1.1347656,1.0185547s0.4853516,0.9667969,0.6035156,1.5839844
		c0.1181641,0.6162109,0.1772461,1.3007812,0.1772461,2.0537109C78.6806641,84.7290878,78.6196289,85.3765488,78.4980469,85.9859238
		z"/>
	<path d="M95.5776367,76.9449081c-0.1103516-0.0371094-0.2563477-0.0664062-0.4370117-0.0888672
		c-0.1811523-0.0224609-0.4116211-0.0332031-0.6923828-0.0332031s-0.5146484,0.0107422-0.703125,0.0332031
		c-0.1879883,0.0224609-0.3374023,0.0517578-0.4482422,0.0888672s-0.1884766,0.0849609-0.2324219,0.1435547
		c-0.0444336,0.0595703-0.0664062,0.1259766-0.0664062,0.1992188v8.6259766c0,0.5019531-0.0683594,0.9501953-0.2050781,1.3457031
		c-0.1367188,0.3945312-0.3305664,0.7265625-0.581543,0.9960938s-0.5571289,0.4746094-0.9189453,0.6142578
		c-0.3618164,0.140625-0.7714844,0.2109375-1.2290039,0.2109375c-0.4501953,0-0.8579102-0.0683594-1.2236328-0.2050781
		c-0.3652344-0.1367188-0.6791992-0.3408203-0.940918-0.6142578c-0.262207-0.2734375-0.4633789-0.6181641-0.6035156-1.0351562
		c-0.140625-0.4169922-0.2104492-0.9101562-0.2104492-1.4785156v-8.4599609c0-0.0732422-0.0239258-0.1396484-0.0722656-0.1992188
		c-0.0478516-0.0585938-0.1269531-0.1064453-0.237793-0.1435547s-0.2583008-0.0664062-0.4428711-0.0888672
		s-0.4169922-0.0332031-0.6977539-0.0332031c-0.2875977,0-0.5239258,0.0107422-0.7084961,0.0332031
		s-0.3339844,0.0517578-0.4487305,0.0888672c-0.1142578,0.0371094-0.1933594,0.0849609-0.237793,0.1435547
		c-0.0444336,0.0595703-0.0664062,0.1259766-0.0664062,0.1992188v8.7148438c0,0.9150391,0.1308594,1.7138672,0.3930664,2.3974609
		c0.2617188,0.6826172,0.6401367,1.2529297,1.1347656,1.7099609c0.4946289,0.4580078,1.1000977,0.7998047,1.815918,1.0244141
		c0.7163086,0.2255859,1.5244141,0.3378906,2.425293,0.3378906c0.9594727,0,1.8081055-0.1259766,2.5463867-0.3759766
		c0.7382812-0.2509766,1.3583984-0.6171875,1.8603516-1.0966797s0.8818359-1.0664062,1.140625-1.7607422
		c0.2583008-0.6933594,0.3876953-1.4794922,0.3876953-2.3583984v-8.5927734c0-0.0732422-0.0224609-0.1396484-0.0664062-0.1992188
		C95.7661133,77.0298691,95.6884766,76.9820175,95.5776367,76.9449081z"/>
	<path d="M108.5380859,84.5796738c-0.2548828-0.2919922-0.5537109-0.5302734-0.8964844-0.7148438
		c-0.34375-0.1835938-0.71875-0.3134766-1.1240234-0.3867188c0.3173828-0.1181641,0.5996094-0.2734375,0.8466797-0.4658203
		c0.2470703-0.1914062,0.4560547-0.4130859,0.6259766-0.6640625s0.2988281-0.5292969,0.3876953-0.8359375
		c0.0878906-0.3066406,0.1328125-0.6328125,0.1328125-0.9794922c0-0.6201172-0.1113281-1.1591797-0.3320312-1.6171875
		c-0.2216797-0.4580078-0.5410156-0.8359375-0.9580078-1.1347656s-0.9306641-0.5224609-1.5390625-0.6699219
		c-0.609375-0.1474609-1.3535156-0.2216797-2.2314453-0.2216797h-3.5986328c-0.2436523,0-0.4482422,0.0722656-0.6142578,0.2158203
		c-0.1660156,0.1445312-0.2495117,0.3789062-0.2495117,0.703125v12.4902344c0,0.3251953,0.0834961,0.5595703,0.2495117,0.703125
		c0.1660156,0.1445312,0.3706055,0.2158203,0.6142578,0.2158203h3.8085938c0.5761719,0,1.0986328-0.0351562,1.5673828-0.1044922
		c0.46875-0.0703125,0.9091797-0.1796875,1.3232422-0.3271484c0.4130859-0.1474609,0.7910156-0.3359375,1.1347656-0.5644531
		c0.3427734-0.2285156,0.6386719-0.5019531,0.8857422-0.8193359s0.4414062-0.6826172,0.5810547-1.0966797
		c0.140625-0.4130859,0.2109375-0.875,0.2109375-1.3837891c0-0.4873047-0.0742188-0.9267578-0.2216797-1.3173828
		C108.9941406,85.2124863,108.7929688,84.8706894,108.5380859,84.5796738z M101.8447266,79.0708847h1.4726562
		c0.4501953,0,0.8095703,0.0400391,1.0791016,0.1220703c0.2695312,0.0810547,0.4931641,0.1972656,0.6699219,0.3486328
		c0.1777344,0.1513672,0.3105469,0.3408203,0.3994141,0.5703125c0.0878906,0.2285156,0.1328125,0.4873047,0.1328125,0.7744141
		c0,0.2587891-0.0410156,0.5039062-0.1220703,0.7363281s-0.2050781,0.4355469-0.3710938,0.609375
		s-0.375,0.3095703-0.6259766,0.4101562c-0.2509766,0.0996094-0.5869141,0.1494141-1.0068359,0.1494141h-1.6279297V79.0708847z
		 M106.1689453,87.8677597c-0.1152344,0.2480469-0.2734375,0.4541016-0.4765625,0.6201172s-0.4433594,0.2919922-0.7197266,0.3769531
		s-0.6181641,0.1269531-1.0244141,0.1269531h-2.1035156v-4.0742188h1.7275391c0.53125,0,0.9628906,0.0478516,1.2949219,0.1435547
		s0.6054688,0.2324219,0.8193359,0.4101562c0.2138672,0.1767578,0.3769531,0.3964844,0.4873047,0.6582031
		c0.1113281,0.2626953,0.1660156,0.5595703,0.1660156,0.8916016
		C106.3398438,87.3384628,106.2832031,87.6206894,106.1689453,87.8677597z"/>
	<path d="M119.4619141,89.074791c-0.0371094-0.0917969-0.0830078-0.1582031-0.1386719-0.1992188
		c-0.0556641-0.0400391-0.1201172-0.0605469-0.1933594-0.0605469h-4.5068359V77.2876816
		c0-0.0732422-0.0244141-0.1396484-0.0722656-0.1992188c-0.0478516-0.0585938-0.1269531-0.1064453-0.2382812-0.1435547
		c-0.1103516-0.0371094-0.2578125-0.0664062-0.4423828-0.0888672s-0.4208984-0.0332031-0.7089844-0.0332031
		c-0.2802734,0-0.5146484,0.0107422-0.703125,0.0332031s-0.3378906,0.0517578-0.4482422,0.0888672
		s-0.1904297,0.0849609-0.2382812,0.1435547c-0.0478516,0.0595703-0.0722656,0.1259766-0.0722656,0.1992188v13.0107422
		c0,0.3251953,0.0839844,0.5595703,0.25,0.703125c0.1660156,0.1445312,0.3701172,0.2158203,0.6142578,0.2158203h6.5664062
		c0.0732422,0,0.1376953-0.0214844,0.1933594-0.0664062c0.0556641-0.0439453,0.1015625-0.1162109,0.1386719-0.2158203
		s0.0644531-0.2246094,0.0830078-0.3759766s0.0273438-0.3378906,0.0273438-0.5595703s-0.0087891-0.4082031-0.0273438-0.5595703
		C119.5263672,89.2896347,119.4990234,89.1675644,119.4619141,89.074791z"/>
	<path d="M129.6708984,89.1910019c-0.0371094-0.0878906-0.0830078-0.1533203-0.1386719-0.1933594
		c-0.0556641-0.0410156-0.1162109-0.0605469-0.1826172-0.0605469h-5.1601562v-4.0419922h4.3300781
		c0.0664062,0,0.1269531-0.0185547,0.1826172-0.0556641c0.0546875-0.0371094,0.1005859-0.0976562,0.1376953-0.1826172
		s0.0644531-0.1972656,0.0830078-0.3378906c0.0185547-0.1396484,0.0283203-0.3173828,0.0283203-0.53125
		c0-0.2060547-0.0097656-0.3818359-0.0283203-0.5263672c-0.0185547-0.1435547-0.0458984-0.2578125-0.0830078-0.3427734
		s-0.0830078-0.1474609-0.1376953-0.1884766c-0.0556641-0.0400391-0.1162109-0.0605469-0.1826172-0.0605469h-4.3300781v-3.4990234
		h5.1162109c0.0664062,0,0.125-0.0205078,0.1767578-0.0605469c0.0517578-0.0410156,0.0957031-0.1054688,0.1328125-0.1943359
		s0.0644531-0.2050781,0.0830078-0.3486328s0.0273438-0.3193359,0.0273438-0.5263672
		c0-0.2207031-0.0087891-0.4042969-0.0273438-0.5478516s-0.0458984-0.2617188-0.0830078-0.3544922
		c-0.0371094-0.0917969-0.0810547-0.15625-0.1328125-0.1933594s-0.1103516-0.0556641-0.1767578-0.0556641h-7.1533203
		c-0.2441406,0-0.4482422,0.0722656-0.6142578,0.2158203c-0.1660156,0.1445312-0.25,0.3789062-0.25,0.703125v12.4902344
		c0,0.3251953,0.0839844,0.5595703,0.25,0.703125c0.1660156,0.1445312,0.3701172,0.2158203,0.6142578,0.2158203h7.1972656
		c0.0664062,0,0.1269531-0.0195312,0.1826172-0.0605469s0.1015625-0.1054688,0.1386719-0.1943359
		c0.0371094-0.0878906,0.0644531-0.2041016,0.0830078-0.3486328c0.0185547-0.1435547,0.0273438-0.3222656,0.0273438-0.5371094
		c0-0.2138672-0.0087891-0.3925781-0.0273438-0.5371094C129.7353516,89.39608,129.7080078,89.2798691,129.6708984,89.1910019z"/>
	<path d="M38.3701172,84.5230255c0.2304688,0,0.4267578,0.0068359,0.5878906,0.0214844
		c0.1621094,0.0136719,0.3007812,0.0332031,0.4160156,0.0615234s0.2138672,0.0654297,0.296875,0.1103516
		c0.0830078,0.046875,0.1777344,0.1210938,0.2841797,0.2216797c0.1064453,0.1025391,0.2421875,0.2978516,0.4082031,0.5888672
		c0.1660156,0.2900391,0.3251953,0.6455078,0.4775391,1.0654297s0.2792969,0.8994141,0.3808594,1.4394531
		s0.1523438,1.1240234,0.1523438,1.7509766c0,1.2265625-0.1894531,2.3339844-0.5673828,3.3222656
		c-0.3789062,0.9863281-0.9433594,1.8261719-1.6962891,2.5185547c-0.7519531,0.6923828-1.6904297,1.2226562-2.8164062,1.5917969
		s-2.4355469,0.5537109-3.9306641,0.5537109c-1.5224609,0-2.8740234-0.203125-4.0556641-0.609375
		c-1.1806641-0.40625-2.1728516-0.9726562-2.9755859-1.7021484s-1.4121094-1.6035156-1.8271484-2.6230469
		s-0.6230469-2.1435547-0.6230469-3.3701172c0-0.4980469,0.0419922-0.9785156,0.125-1.4394531
		s0.1914062-0.8886719,0.3251953-1.2802734s0.2880859-0.7451172,0.4638672-1.0595703
		c0.1748047-0.3125,0.3251953-0.5322266,0.4492188-0.65625c0.125-0.125,0.2285156-0.2109375,0.3115234-0.2568359
		s0.1894531-0.0830078,0.3183594-0.1103516c0.1298828-0.0273438,0.28125-0.0488281,0.4570312-0.0625
		c0.1748047-0.0136719,0.3925781-0.0214844,0.6503906-0.0214844c0.2763672,0,0.5117188,0.0097656,0.7060547,0.0283203
		c0.1933594,0.0185547,0.3505859,0.0507812,0.4707031,0.0966797c0.1201172,0.046875,0.2070312,0.1015625,0.2626953,0.1660156
		s0.0830078,0.1386719,0.0830078,0.2216797c0,0.1386719-0.0810547,0.3134766-0.2421875,0.5263672
		c-0.1611328,0.2119141-0.3408203,0.4863281-0.5400391,0.8232422c-0.1982422,0.3369141-0.3779297,0.7382812-0.5390625,1.2041016
		c-0.1621094,0.4667969-0.2431641,1.0214844-0.2431641,1.6679688c0,0.7109375,0.1455078,1.3447266,0.4365234,1.9033203
		c0.2910156,0.5576172,0.7060547,1.0332031,1.2460938,1.4248047c0.5390625,0.3925781,1.1923828,0.6904297,1.9580078,0.8935547
		s1.6289062,0.3037109,2.5878906,0.3037109c1.0527344,0,1.9638672-0.1074219,2.734375-0.3242188
		s1.4042969-0.5263672,1.9023438-0.9277344c0.4990234-0.4013672,0.8701172-0.8857422,1.1142578-1.453125
		c0.2451172-0.5683594,0.3671875-1.2070312,0.3671875-1.9169922c0-0.6455078-0.0761719-1.2041016-0.2285156-1.6748047
		s-0.3203125-0.875-0.5048828-1.2109375c-0.1845703-0.3369141-0.3505859-0.6132812-0.4980469-0.8310547
		c-0.1474609-0.2158203-0.2216797-0.3847656-0.2216797-0.5048828c0-0.0917969,0.0185547-0.1660156,0.0556641-0.2216797
		C36.9257812,84.7163849,37,84.671463,37.1103516,84.6343536c0.1113281-0.0371094,0.265625-0.0644531,0.4638672-0.0839844
		C37.7724609,84.5327911,38.0380859,84.5230255,38.3701172,84.5230255z"/>
	<path d="M39.5605469,69.2320099c0.2763672,0,0.5097656,0.0117188,0.6992188,0.0341797
		c0.1884766,0.0224609,0.3457031,0.0576172,0.4707031,0.1035156C40.8544922,69.4156036,40.9443359,69.4741974,41,69.5425568
		c0.0556641,0.0693359,0.0830078,0.1503906,0.0830078,0.2421875v8.2080078c0,0.3046875-0.0898438,0.5605469-0.2695312,0.7685547
		c-0.1806641,0.2070312-0.4726562,0.3105469-0.8789062,0.3105469H23.6708984c-0.0917969,0-0.1748047-0.0292969-0.2490234-0.0898438
		c-0.0742188-0.0595703-0.1337891-0.1582031-0.1796875-0.296875s-0.0830078-0.3261719-0.1113281-0.5605469
		c-0.0273438-0.2353516-0.0410156-0.5283203-0.0410156-0.8789062c0-0.3603516,0.0136719-0.6552734,0.0410156-0.8867188
		c0.0283203-0.2304688,0.0654297-0.4140625,0.1113281-0.5527344s0.1054688-0.2382812,0.1796875-0.2978516
		s0.1572266-0.0898438,0.2490234-0.0898438h14.4082031v-5.6337891c0-0.0917969,0.0263672-0.1728516,0.0761719-0.2421875
		c0.0507812-0.0683594,0.1337891-0.1269531,0.2490234-0.1728516c0.1162109-0.0458984,0.2685547-0.0810547,0.4570312-0.1035156
		C39.0507812,69.2437286,39.2832031,69.2320099,39.5605469,69.2320099z"/>
	<path d="M40.5849609,60.5972404c0.0917969,0,0.1748047,0.0302734,0.2490234,0.0898438
		c0.0742188,0.0605469,0.1337891,0.1601562,0.1796875,0.2978516c0.046875,0.1386719,0.0830078,0.3232422,0.1113281,0.5537109
		c0.0273438,0.2304688,0.0410156,0.5253906,0.0410156,0.8857422c0,0.3505859-0.0136719,0.6435547-0.0410156,0.8789062
		c-0.0283203,0.2353516-0.0644531,0.4228516-0.1113281,0.5605469c-0.0458984,0.1386757-0.1054688,0.2373085-0.1796875,0.2978554
		s-0.1572266,0.0898438-0.2490234,0.0898438H23.6708984c-0.0917969,0-0.1748047-0.0292969-0.2490234-0.0898438
		s-0.1337891-0.1621132-0.1796875-0.3046913s-0.0830078-0.3300781-0.1113281-0.5605469
		c-0.0273438-0.2304688-0.0410156-0.5214844-0.0410156-0.8720703c0-0.3603516,0.0136719-0.6552734,0.0410156-0.8857422
		c0.0283203-0.2304688,0.0654297-0.4150391,0.1113281-0.5537109c0.0458984-0.1376953,0.1054688-0.2373047,0.1796875-0.2978516
		c0.0742188-0.0595703,0.1572266-0.0898438,0.2490234-0.0898438H40.5849609z"/>
	<path d="M38.3701172,41.4717522c0.2304688,0,0.4267578,0.0068359,0.5878906,0.0209961
		c0.1621094,0.0136719,0.3007812,0.0341797,0.4160156,0.0620117s0.2138672,0.0649414,0.296875,0.1108398
		c0.0830078,0.0463867,0.1777344,0.1201172,0.2841797,0.2211914c0.1064453,0.1020508,0.2421875,0.2978516,0.4082031,0.5883789
		s0.3251953,0.6459961,0.4775391,1.065918s0.2792969,0.8994141,0.3808594,1.4394531
		c0.1015625,0.5395508,0.1523438,1.1235352,0.1523438,1.7509766c0,1.2270508-0.1894531,2.3344727-0.5673828,3.3217773
		c-0.3789062,0.9873047-0.9433594,1.8271484-1.6962891,2.519043c-0.7519531,0.6918945-1.6904297,1.2226562-2.8164062,1.5917969
		s-2.4355469,0.5537109-3.9306641,0.5537109c-1.5224609,0-2.8740234-0.203125-4.0556641-0.609375
		c-1.1806641-0.4057617-2.1728516-0.9731445-2.9755859-1.7021484s-1.4121094-1.6035156-1.8271484-2.6230469
		s-0.6230469-2.1430664-0.6230469-3.3701172c0-0.4985352,0.0419922-0.9780273,0.125-1.4394531
		s0.1914062-0.8881836,0.3251953-1.2802734s0.2880859-0.7451172,0.4638672-1.059082
		c0.1748047-0.3134766,0.3251953-0.5327148,0.4492188-0.6572266c0.125-0.1245117,0.2285156-0.2099609,0.3115234-0.2563477
		c0.0830078-0.0458984,0.1894531-0.0830078,0.3183594-0.1103516c0.1298828-0.027832,0.28125-0.0488281,0.4570312-0.0625
		c0.1748047-0.0136719,0.3925781-0.0209961,0.6503906-0.0209961c0.2763672,0,0.5117188,0.0097656,0.7060547,0.027832
		c0.1933594,0.0185547,0.3505859,0.0507812,0.4707031,0.097168c0.1201172,0.0458984,0.2070312,0.1015625,0.2626953,0.1660156
		s0.0830078,0.1381836,0.0830078,0.2211914c0,0.1386719-0.0810547,0.3139648-0.2421875,0.5258789
		c-0.1611328,0.2124023-0.3408203,0.4868164-0.5400391,0.8237305c-0.1982422,0.3369141-0.3779297,0.7382812-0.5390625,1.2041016
		c-0.1621094,0.4663086-0.2431641,1.0219727-0.2431641,1.6679688c0,0.7104492,0.1455078,1.3447266,0.4365234,1.9033203
		c0.2910156,0.5581055,0.7060547,1.0332031,1.2460938,1.425293c0.5390625,0.3925781,1.1923828,0.6899414,1.9580078,0.8930664
		s1.6289062,0.3041992,2.5878906,0.3041992c1.0527344,0,1.9638672-0.1083984,2.734375-0.3251953
		s1.4042969-0.5258789,1.9023438-0.9272461c0.4990234-0.4013672,0.8701172-0.8857422,1.1142578-1.453125
		c0.2451172-0.5678711,0.3671875-1.206543,0.3671875-1.9169922c0-0.6459961-0.0761719-1.2045898-0.2285156-1.6748047
		c-0.1523438-0.4707031-0.3203125-0.8745117-0.5048828-1.2114258c-0.1845703-0.3364258-0.3505859-0.6132812-0.4980469-0.8305664
		c-0.1474609-0.2163086-0.2216797-0.3847656-0.2216797-0.5048828c0-0.0922852,0.0185547-0.1660156,0.0556641-0.2216797
		C36.9257812,41.6655998,37,41.6197014,37.1103516,41.582592c0.1113281-0.0366211,0.265625-0.0644531,0.4638672-0.0830078
		S38.0380859,41.4717522,38.3701172,41.4717522z"/>
	<path d="M40.5429688,22.9414787c0.1015625,0,0.1914062,0.0253906,0.2705078,0.0761719
		c0.078125,0.0507812,0.1425781,0.1474609,0.1933594,0.2905273s0.0898438,0.3388672,0.1181641,0.5883789
		c0.0273438,0.2490234,0.0410156,0.5629883,0.0410156,0.940918c0,0.6000977-0.0234375,1.03125-0.0693359,1.2944336
		c-0.0458984,0.2626953-0.1152344,0.4521484-0.2070312,0.5673828c-0.0927734,0.1152344-0.203125,0.2055664-0.3330078,0.2700195
		l-8.4980469,5.4116211h8.4980469c0.1025391,0,0.1894531,0.027832,0.2636719,0.0830078
		c0.0732422,0.0551758,0.1357422,0.1523438,0.1865234,0.2905273c0.0507812,0.1386719,0.0898438,0.3232422,0.1181641,0.5537109
		c0.0273438,0.230957,0.0410156,0.5258789,0.0410156,0.8857422c0,0.3510742-0.0136719,0.644043-0.0410156,0.8789062
		c-0.0283203,0.2353516-0.0673828,0.4223633-0.1181641,0.5605469c-0.0507812,0.1386719-0.1132812,0.237793-0.1865234,0.2978516
		c-0.0742188,0.0600586-0.1611328,0.0898438-0.2636719,0.0898438H23.6845703c-0.1015625,0-0.1884766-0.0297852-0.2626953-0.0898438
		s-0.1337891-0.1591797-0.1796875-0.2978516c-0.0458984-0.1381836-0.0830078-0.3251953-0.1113281-0.5605469
		c-0.0273438-0.2348633-0.0410156-0.527832-0.0410156-0.8789062c0-0.3598633,0.0136719-0.6547852,0.0410156-0.8857422
		c0.0283203-0.2304688,0.0654297-0.4150391,0.1113281-0.5537109c0.0458984-0.1381836,0.1054688-0.2353516,0.1796875-0.2905273
		s0.1611328-0.0830078,0.2626953-0.0830078h7.6269531l-7.6132812-5.2456055
		c-0.1191406-0.0644531-0.21875-0.1430664-0.296875-0.2353516s-0.140625-0.2124023-0.1875-0.3598633
		c-0.0458984-0.1474609-0.078125-0.3369141-0.0966797-0.5673828c-0.0185547-0.230957-0.0273438-0.5263672-0.0273438-0.8862305
		c0-0.3686523,0.0136719-0.6733398,0.0410156-0.9130859c0.0283203-0.2402344,0.0673828-0.4316406,0.1181641-0.574707
		s0.1132812-0.2421875,0.1865234-0.2973633c0.0742188-0.0556641,0.1572266-0.0830078,0.2490234-0.0830078
		c0.1572266,0,0.3183594,0.0415039,0.484375,0.1245117s0.4296875,0.2397461,0.7890625,0.4707031l6.4365234,4.9135742
		l8.0966797-5.3569336c0.3789062-0.2026367,0.6298828-0.3251953,0.7548828-0.3666992
		C40.3701172,22.9619865,40.4697266,22.9414787,40.5429688,22.9414787z"/>
</g>
</svg>
