<?xml version="1.0" encoding="UTF-8" standalone="no"?>
<svg
   xmlns:dc="http://purl.org/dc/elements/1.1/"
   xmlns:cc="http://creativecommons.org/ns#"
   xmlns:rdf="http://www.w3.org/1999/02/22-rdf-syntax-ns#"
   xmlns:svg="http://www.w3.org/2000/svg"
   xmlns="http://www.w3.org/2000/svg"
   xmlns:sodipodi="http://sodipodi.sourceforge.net/DTD/sodipodi-0.dtd"
   xmlns:inkscape="http://www.inkscape.org/namespaces/inkscape"
   width="150mm"
   height="150mm"
   viewBox="0 0 150 150"
   version="1.1"
   id="svg8"
   inkscape:version="1.0.1 (3bc2e813f5, 2020-09-07)"
   sodipodi:docname="BruCon_V2_F.SilkS.svg">
  <defs
     id="defs2" />
  <sodipodi:namedview
     id="base"
     pagecolor="#ffffff"
     bordercolor="#666666"
     borderopacity="1.0"
     inkscape:pageopacity="0.0"
     inkscape:pageshadow="2"
     inkscape:zoom="1.979899"
     inkscape:cx="348.9873"
     inkscape:cy="185.99102"
     inkscape:document-units="mm"
     inkscape:current-layer="layer1"
     inkscape:document-rotation="0"
     showgrid="false"
     inkscape:window-width="3840"
     inkscape:window-height="2066"
     inkscape:window-x="-11"
     inkscape:window-y="-11"
     inkscape:window-maximized="1" />
  <metadata
     id="metadata5">
    <rdf:RDF>
      <cc:Work
         rdf:about="">
        <dc:format>image/svg+xml</dc:format>
        <dc:type
           rdf:resource="http://purl.org/dc/dcmitype/StillImage" />
        <dc:title></dc:title>
      </cc:Work>
    </rdf:RDF>
  </metadata>
  <g
     inkscape:label="Layer 1"
     inkscape:groupmode="layer"
     id="layer1">
    <path
       style="fill:#000000;stroke-width:0.0211667"
       d="m 75.327525,134.00912 c -0.07432,-0.0404 -0.114524,-0.14423 -0.111781,-0.2887 0.0023,-0.12334 0.06393,-0.28527 0.129051,-0.3393 0.05755,-0.0478 0.279334,-0.0334 0.382903,0.0248 l 0.08903,0.05 v 0.19189 c 0,0.23573 -0.03725,0.32751 -0.148133,0.36532 -0.101047,0.0345 -0.273922,0.0324 -0.341035,-0.004 z m -8.92424,-3.89897 c -0.06159,-0.0119 -0.102216,-0.0723 -0.246278,-0.36612 l -0.119346,-0.24342 -0.0053,-0.34046 c -0.0063,-0.40829 -0.0055,-0.4102 0.182541,-0.41263 0.141271,-0.002 0.129593,-0.0137 -0.04831,-0.0493 -0.10197,-0.0204 -0.117684,-0.0305 -0.134002,-0.0866 -0.0103,-0.0354 -0.01561,-1.48052 -0.01199,-3.26495 l 0.0065,-3.20145 0.267324,-10e-6 h 0.267327 l 0.01607,1.45521 c 0.01725,1.56251 8e-6,6.39824 -0.0231,6.477 -0.01395,0.0475 -0.0427,0.0538 -0.151479,0.0327 z m 17.964776,-3.951 v -3.97162 h 0.261199 0.261197 l 0.01397,0.51142 c 0.01776,0.65014 0.01436,5.55656 -0.004,5.79537 l -0.01377,0.17904 -0.135916,0.0274 c -0.07475,0.0151 -0.140635,0.0322 -0.146403,0.0379 -0.0058,0.006 0.04708,0.0105 0.117449,0.0105 0.08683,0 0.136246,0.01 0.153799,0.0312 0.01884,0.0227 0.02385,0.13048 0.01847,0.39688 l -0.0074,0.36571 -0.13372,0.254 c -0.07355,0.1397 -0.14521,0.26579 -0.159254,0.28021 -0.01404,0.0144 -0.07055,0.0324 -0.125569,0.0399 l -0.100038,0.0137 z m -1.303901,2.03281 c -0.152423,-0.0577 -0.167333,-0.0797 -0.165567,-0.24429 0.0025,-0.22862 0.06027,-0.29914 0.245287,-0.29914 0.07186,0 0.0998,0.0136 0.168337,0.0822 0.07198,0.072 0.08218,0.0944 0.08218,0.18097 0,0.11435 -0.03921,0.20151 -0.118848,0.26415 -0.06247,0.0491 -0.11382,0.0531 -0.211386,0.0161 z m -15.407184,-0.0812 c -0.112405,-0.0618 -0.149927,-0.20907 -0.08518,-0.33427 0.07214,-0.1395 0.303835,-0.19745 0.420991,-0.10529 0.04878,0.0384 0.05577,0.0592 0.05577,0.16648 0,0.0923 -0.01093,0.1365 -0.0442,0.1788 -0.08431,0.10718 -0.244741,0.15072 -0.347381,0.0943 z m 0.01535,-5.03436 c -0.172254,-0.10502 -0.142885,-0.33825 0.06121,-0.4861 0.139823,-0.10128 0.211631,-0.0863 0.383817,0.0804 0.08733,0.0845 0.100531,0.10853 0.100464,0.18276 -2.12e-4,0.12052 -0.06365,0.21525 -0.162863,0.2428 -0.132474,0.0368 -0.304372,0.0279 -0.382628,-0.0198 z m 15.186374,0.0271 c -0.03807,-0.006 -0.07377,-0.0325 -0.09928,-0.0744 -0.05066,-0.0833 -0.078,-0.23355 -0.04452,-0.2447 0.01332,-0.004 0.03883,-0.0363 0.05669,-0.0709 0.03959,-0.0766 0.208208,-0.18738 0.285104,-0.18738 0.0653,0 0.206758,0.0961 0.259148,0.17606 0.04627,0.0706 0.04853,0.2626 0.0038,0.3264 -0.05346,0.0763 -0.244784,0.10743 -0.460989,0.0749 z m 8.600197,-50.185615 c -0.366712,-0.0026 -3.02895,-0.01956 -5.916084,-0.03764 -5.924622,-0.0371 -8.642924,-0.06666 -8.789804,-0.0956 -0.05511,-0.01086 -0.132679,-0.0294 -0.172381,-0.04122 -0.0397,-0.01181 -0.224456,-0.02799 -0.410564,-0.03594 -0.28761,-0.0123 -0.341882,-0.0097 -0.361732,0.01723 -0.01944,0.02638 -0.131519,0.03405 -0.668936,0.04575 -0.355071,0.0077 -0.759884,0.02338 -0.899584,0.03479 -0.1397,0.01141 -0.2921,0.0224 -0.338666,0.02442 -0.04657,0.002 -1.241955,-0.0073 -2.656417,-0.02067 -6.973842,-0.06602 -15.846636,-0.112484 -16.330085,-0.08552 -0.186267,0.01039 -0.462492,0.02741 -0.613834,0.03782 -0.34295,0.02359 -3.6112,0.02553 -6.880962,0.0041 l -2.478293,-0.01626 -0.04583,-0.04583 c -0.0252,-0.0252 -0.0605,-0.04583 -0.07842,-0.04583 -0.05077,0 -0.184178,-0.07438 -0.248144,-0.138341 -0.07849,-0.07849 -0.0759,-0.13429 0.007,-0.15087 0.08011,-0.01602 0.113904,-0.06718 0.148135,-0.224212 0.02887,-0.132438 0.01915,-0.164981 -0.03569,-0.119467 -0.03127,0.02595 -0.03381,0.02448 -0.02215,-0.01286 0.0072,-0.02319 0.05183,-0.204093 0.09908,-0.402001 0.04725,-0.197909 0.111735,-0.450321 0.143297,-0.560917 0.05623,-0.197055 0.05764,-0.199388 0.0703,-0.116417 0.0094,0.06143 0.01375,0.03529 0.01596,-0.09525 0.0024,-0.143207 0.03125,-0.294365 0.141275,-0.740833 0.07603,-0.308504 0.148658,-0.613304 0.161402,-0.677333 0.01275,-0.06403 0.03067,-0.135467 0.03984,-0.15875 0.02446,-0.06213 0.05709,-0.191669 0.14659,-0.582084 0.04404,-0.192087 0.09981,-0.420687 0.123939,-0.508 0.06891,-0.249352 0.171962,-0.667192 0.456771,-1.852083 0.359513,-1.495682 0.598024,-2.476382 0.898292,-3.693584 0.139285,-0.564621 0.436234,-1.779059 0.659888,-2.69875 0.223653,-0.919692 0.447207,-1.838855 0.496788,-2.042584 0.04958,-0.203729 0.105721,-0.403754 0.124758,-0.4445 l 0.03461,-0.07408 -0.01069,0.10294 c -0.0091,0.08802 -0.157694,0.787614 -0.193885,0.91306 -0.02873,0.0996 0.03749,-0.01558 0.15159,-0.263625 0.06669,-0.144991 0.137638,-0.287866 0.157653,-0.3175 0.09138,-0.135276 0.165071,-0.276521 0.210315,-0.403125 0.02704,-0.07567 0.0556,-0.144594 0.06347,-0.153162 0.0475,-0.05176 0.627253,-0.05714 4.748814,-0.04406 l 4.333875,0.01375 v 0.04647 c 0,0.03908 -0.0093,0.04483 -0.05821,0.03617 -0.04436,-0.0078 -0.0526,-0.0043 -0.03463,0.01488 0.01344,0.01435 0.06352,0.02232 0.116417,0.01853 0.08765,-0.0063 0.0932,-0.01049 0.09947,-0.07544 l 0.0066,-0.06879 h 8.481202 8.481201 l 0.175535,0.145673 c 0.25381,0.210632 0.513844,0.337793 0.627509,0.306862 0.02399,-0.0065 0.100773,-0.09163 0.170623,-0.189114 0.07396,-0.103217 0.151602,-0.187604 0.185904,-0.20205 0.03855,-0.01624 0.112383,-0.01996 0.213686,-0.01078 0.08513,0.0077 2.401774,0.0043 5.148096,-0.0076 2.746322,-0.01192 8.507473,-0.03157 12.802556,-0.04368 5.49852,-0.01549 7.817333,-0.02872 7.836603,-0.04471 0.0318,-0.02637 0.59481,0.01536 0.63305,0.04692 0.0558,0.04605 0.1373,0.238698 0.18753,0.443206 0.03,0.122104 0.20685,0.893519 0.39302,1.714257 0.18617,0.820738 0.39513,1.735138 0.46435,2.032 0.0692,0.296863 0.35064,1.525588 0.62538,2.7305 0.27473,1.204913 0.56538,2.471738 0.64588,2.815167 0.14933,0.637041 0.43664,1.890061 0.69889,3.048001 0.0804,0.355071 0.19817,0.864658 0.26169,1.132416 0.16106,0.678989 0.18228,0.805847 0.18228,1.089631 v 0.248871 l -0.10793,0.139808 c -0.083,0.107529 -0.12333,0.142346 -0.17463,0.150796 -0.0367,0.006 -2.11459,0.0207 -4.61758,0.03257 -2.703355,0.01282 -4.601732,0.02986 -4.676125,0.04197 -0.08592,0.01399 -0.142745,0.03716 -0.181015,0.07382 l -0.05578,0.05344 -2.073176,-0.005 c -1.140246,-0.0027 -2.373213,-0.0071 -2.739926,-0.0097 z m 3.91627,-0.431387 c 0.01614,-0.05996 0.0165,-0.09439 0.0012,-0.112859 -0.01213,-0.01462 -0.0365,-0.12581 -0.05416,-0.247093 -0.12286,-0.84385 -0.159006,-1.079725 -0.17976,-1.173017 -0.0423,-0.190155 -0.302298,-1.777295 -1.217048,-7.429501 -0.495511,-3.061758 -0.905421,-5.587158 -0.910907,-5.611999 l -0.01,-0.04517 -5.477089,0.0095 c -7.364181,0.01271 -11.169353,0.0355 -11.269175,0.06748 -0.04239,0.01359 -0.09002,0.04036 -0.105833,0.05949 -0.03583,0.04337 -0.03305,0.808609 0.0131,3.594566 0.01774,1.071033 0.04656,2.823633 0.06404,3.894667 0.07719,4.729313 0.111369,6.323085 0.135935,6.338826 0.02725,0.01746 0.03974,0.400438 0.01339,0.410475 -0.01231,0.0047 -0.0033,0.0151 0.01996,0.02313 0.02328,0.008 0.06615,0.02872 0.09525,0.04595 0.115826,0.0686 0.194989,0.09261 0.374026,0.113432 0.203532,0.02368 2.589672,0.04863 8.283141,0.08663 2.008188,0.0134 4.327526,0.03116 5.154084,0.03946 0.826559,0.0083 2.300186,0.01672 3.274727,0.01872 l 1.771892,0.0036 0.02323,-0.08628 z M 78.250894,72.159403 c -0.217958,-0.05946 -0.382581,-0.155626 -0.541971,-0.316588 -0.228096,-0.230346 -0.346257,-0.502696 -0.346777,-0.799288 -2.33e-4,-0.132016 0.0086,-0.160009 0.1158,-0.367207 0.06383,-0.123364 0.146167,-0.258596 0.182974,-0.300514 0.104584,-0.119118 0.141016,-0.226702 0.166427,-0.491488 0.01283,-0.133676 0.03668,-0.376396 0.053,-0.53938 0.01633,-0.162983 0.03506,-0.367771 0.04163,-0.455083 0.05109,-0.678665 0.145197,-1.61779 0.171247,-1.708934 0.02394,-0.08377 0.04319,-0.113417 0.0788,-0.121361 0.09911,-0.02211 0.725174,-0.05452 0.817783,-0.04233 0.119196,0.01568 0.314048,0.107554 0.32871,0.154984 0.03203,0.103601 0.05595,0.525884 0.08472,1.495396 0.0437,1.472489 0.04685,1.518907 0.108947,1.603709 0.02757,0.03765 0.06139,0.08989 0.07515,0.116083 0.01376,0.02619 0.03143,0.04763 0.03927,0.04763 0.02815,0 0.169454,-0.226338 0.169454,-0.271425 0,-0.0315 0.013,-0.04608 0.04108,-0.04608 0.0226,0 0.04697,-0.0095 0.05417,-0.02117 0.0188,-0.03041 0.106045,-0.02607 0.191232,0.0095 0.06671,0.02787 0.08172,0.02694 0.163362,-0.01012 0.129534,-0.0588 0.290989,-0.05316 0.290989,0.01016 0,0.01441 0.01905,0.04345 0.04233,0.06452 0.06308,0.05708 0.05245,0.109739 -0.05426,0.268781 -0.08831,0.131627 -0.102889,0.143969 -0.170038,0.143969 -0.04039,0 -0.120752,-0.02397 -0.178573,-0.05327 -0.05782,-0.0293 -0.105131,-0.04709 -0.105131,-0.03952 0,0.0076 0.06191,0.08954 0.137584,0.182168 0.152597,0.186796 0.170455,0.253365 0.08859,0.33027 -0.05773,0.05424 -0.12363,0.05871 -0.193212,0.01312 -0.06035,-0.03954 -0.06608,-0.03171 -0.08599,0.117566 -0.02524,0.189215 -0.08955,0.36949 -0.153194,0.42945 -0.164008,0.154515 -0.207871,0.189605 -0.288322,0.230647 -0.04811,0.02455 -0.170539,0.09601 -0.272057,0.158803 -0.328839,0.203412 -0.393448,0.225396 -0.683321,0.232508 -0.177265,0.0044 -0.289171,-0.0034 -0.370417,-0.02553 z M 79.2821,71.788594 c 0.09959,-0.03471 0.161112,-0.134311 0.445933,-0.721887 0.01294,-0.02669 -0.296272,-0.356834 -0.345859,-0.369278 -0.07588,-0.01904 -0.150209,0.04609 -0.39127,0.342883 -0.216294,0.266294 -0.307912,0.346981 -0.394151,0.347131 -0.05482,0 -0.193237,-0.106297 -0.500916,-0.385015 -0.126026,-0.114165 -0.245088,-0.20755 -0.264583,-0.207522 -0.04946,0 -0.209319,0.204533 -0.224915,0.287663 -0.01614,0.08603 0.0377,0.350787 0.08935,0.439402 0.03183,0.05461 0.05582,0.06879 0.13298,0.07855 0.05178,0.0065 0.160816,0.03211 0.242307,0.0568 0.411573,0.124663 1.03595,0.192341 1.211123,0.131275 z m -0.410805,-0.823493 c 0.02896,-0.03442 0.106615,-0.163168 0.172553,-0.286098 0.10794,-0.201231 0.121814,-0.241932 0.139207,-0.40837 0.02285,-0.218626 -0.01166,-2.280599 -0.04345,-2.596139 -0.03418,-0.339303 -0.0891,-0.390161 -0.423043,-0.391799 -0.345337,-0.0017 -0.375823,0.05229 -0.465299,0.823993 -0.07744,0.667908 -0.108862,1.1434 -0.121069,1.832126 l -0.01203,0.678542 0.113989,0.09592 c 0.217354,0.182903 0.441321,0.312936 0.540732,0.313946 0.02516,2.54e-4 0.06944,-0.0277 0.09841,-0.06212 z m -0.395296,-0.446949 c -0.144955,-0.114021 0.0111,-0.424966 0.199289,-0.397074 0.03562,0.0053 0.05446,0.03072 0.07577,0.102277 0.04206,0.141251 0.03682,0.166493 -0.05317,0.256489 -0.093,0.093 -0.141668,0.101405 -0.221884,0.03831 z m 0.03118,-1.160766 c -0.02229,-0.01412 -0.02692,-0.05414 -0.01902,-0.16452 0.0141,-0.197108 0.0391,-0.239511 0.141196,-0.239511 0.108716,0 0.150703,0.04971 0.150703,0.178407 0,0.08663 -0.01023,0.111227 -0.07197,0.17296 -0.07136,0.07136 -0.142098,0.0899 -0.20091,0.05266 z m 0.103543,-1.377698 c -0.05445,-0.05445 -0.05361,-0.12522 0.0028,-0.233386 0.03009,-0.05773 0.05532,-0.0826 0.07581,-0.07474 0.01689,0.0065 0.03878,0.01179 0.04864,0.01179 0.0792,0 0.114753,0.201314 0.0515,0.291623 -0.04114,0.05873 -0.122547,0.06088 -0.178717,0.0047 z m 10.752475,4.042294 c -0.252607,-0.0296 -0.404704,-0.109072 -0.820016,-0.428487 -0.212106,-0.163134 -0.216958,-0.168783 -0.216958,-0.252754 0,-0.04724 -0.01067,-0.121522 -0.02372,-0.165072 -0.0184,-0.0614 -0.03248,-0.07689 -0.06274,-0.06898 -0.02146,0.0056 -0.05344,-0.0042 -0.07107,-0.02185 -0.02443,-0.02443 -0.0622,-0.02932 -0.15883,-0.02056 -0.223008,0.02022 -0.267706,-0.04652 -0.210329,-0.314062 0.03102,-0.144634 0.12602,-0.232446 0.333307,-0.308083 l 0.155859,-0.05687 0.03946,0.05134 c 0.0217,0.02823 0.03967,0.06747 0.03993,0.0872 2.54e-4,0.01973 0.02418,0.06259 0.05315,0.09525 l 0.05268,0.05939 0.04253,-0.05292 c 0.14615,-0.181837 0.190312,-0.267655 0.209976,-0.408018 0.01209,-0.08629 0.01517,-0.706107 0.0077,-1.55575 -0.01095,-1.251373 -0.0086,-1.419553 0.02051,-1.475816 0.04966,-0.09594 0.194346,-0.130962 0.790656,-0.191404 0.160337,-0.01625 0.292847,0.01734 0.36907,0.09357 0.06991,0.06991 0.112385,0.240974 0.159368,0.641875 0.01814,0.154805 0.05101,0.400525 0.07303,0.546045 0.02203,0.145521 0.05053,0.364596 0.06333,0.486834 0.0128,0.122237 0.05136,0.415935 0.08569,0.652663 0.03433,0.236728 0.06241,0.465697 0.06241,0.508818 0,0.119648 0.0584,0.210834 0.302307,0.472065 0.349675,0.3745 0.323765,0.322815 0.294094,0.586676 -0.02963,0.263492 -0.06254,0.381756 -0.153988,0.553323 -0.214179,0.401843 -0.713244,0.570431 -1.437439,0.485582 z m 1.078044,-0.350505 c 0.03207,-0.03591 0.08494,-0.140686 0.117486,-0.232833 0.03255,-0.09215 0.0915,-0.243739 0.130994,-0.336872 l 0.07181,-0.169334 -0.15403,-0.141844 c -0.189674,-0.174667 -0.250152,-0.204404 -0.32113,-0.157899 -0.02801,0.01836 -0.143173,0.171829 -0.255909,0.34105 -0.206936,0.310621 -0.271964,0.38295 -0.365373,0.406394 -0.05301,0.0133 -0.09302,-0.01113 -0.625752,-0.382181 l -0.207635,-0.144617 -0.04888,0.04592 c -0.02689,0.02526 -0.07387,0.09184 -0.104419,0.147961 -0.0492,0.09041 -0.05276,0.11019 -0.03117,0.173541 0.03361,0.09863 0.133077,0.240439 0.202912,0.289302 0.09845,0.06888 0.408188,0.173116 0.608493,0.204769 0.121344,0.01917 0.323691,0.02862 0.557399,0.02602 l 0.366899,-0.0041 z M 89.80031,70.993094 c 0.05974,-0.02834 0.08984,-0.06945 0.166658,-0.227542 0.194996,-0.401297 0.206328,-0.479965 0.138295,-0.959949 -0.02271,-0.160231 -0.06574,-0.505644 -0.09562,-0.767582 -0.104623,-0.917147 -0.184366,-1.513247 -0.210901,-1.576556 -0.01472,-0.03512 -0.05287,-0.09482 -0.08477,-0.132652 -0.06555,-0.07774 -0.119774,-0.08449 -0.378253,-0.04712 -0.183559,0.02654 -0.264426,0.06887 -0.301616,0.157878 -0.07083,0.169515 -0.05478,2.219858 0.02188,2.794366 0.0446,0.334277 0.06897,0.420618 0.13716,0.485949 0.04364,0.04181 0.45568,0.280511 0.526893,0.305238 0.0041,0.0014 0.04019,-0.013 0.08029,-0.03203 z m -0.380723,-0.46978 c -0.07816,-0.08637 -0.007,-0.369616 0.09965,-0.396373 0.08029,-0.02015 0.132923,0.006 0.170189,0.08452 0.06177,0.130162 0.03381,0.252923 -0.07182,0.315316 -0.07798,0.04607 -0.154413,0.04473 -0.198025,-0.0035 z m -0.0624,-1.177015 c -0.0485,-0.0485 -0.06291,-0.145349 -0.03631,-0.244123 0.04381,-0.162707 0.159021,-0.218358 0.250486,-0.120998 0.05935,0.06317 0.05847,0.165511 -0.0025,0.289677 -0.03874,0.07892 -0.05809,0.09635 -0.11289,0.101685 -0.03897,0.0038 -0.07956,-0.007 -0.09881,-0.02624 z m 0.01192,-1.336472 c -0.102965,-0.04505 -0.119585,-0.192845 -0.03254,-0.289431 0.03834,-0.04254 0.133373,-0.04902 0.170753,-0.01164 0.04347,0.04347 0.03166,0.235062 -0.01776,0.288108 -0.02374,0.02548 -0.04517,0.04555 -0.04763,0.0446 -0.0025,-9.53e-4 -0.03523,-0.01519 -0.07283,-0.03163 z m -9.585292,-1.849171 c -0.06365,-0.09618 -0.09115,-0.209228 -0.093,-0.382301 -0.0014,-0.126154 -0.01257,-0.154543 -0.06939,-0.175506 -0.02037,-0.0075 -0.03704,-0.02787 -0.03704,-0.04523 0,-0.01846 -0.03498,-0.04205 -0.08426,-0.05681 -0.09695,-0.02904 -0.115748,-0.06736 -0.09533,-0.194304 0.02935,-0.18245 0.123544,-0.237613 0.215339,-0.126107 0.03764,0.04572 0.052,0.05204 0.06694,0.02949 0.01327,-0.02004 0.0234,-0.02164 0.0335,-0.0053 0.008,0.01289 0.0282,0.02343 0.04498,0.02343 0.02228,0 0.0305,-0.02713 0.0305,-0.100681 0,-0.05537 0.0093,-0.133215 0.02074,-0.172978 0.0255,-0.0889 0.0081,-0.113177 -0.13182,-0.184085 -0.147464,-0.07473 -0.42004,-0.342667 -0.497912,-0.489445 -0.179129,-0.337636 -0.192134,-0.71494 -0.0357,-1.035804 0.152062,-0.311897 0.519166,-0.514674 0.931757,-0.514674 0.167619,0 0.402154,0.06245 0.510148,0.135831 0.04425,0.03007 0.09232,0.05467 0.106822,0.05467 0.04673,0 0.25719,0.27776 0.357249,0.471494 l 0.0972,0.188195 -0.0072,0.310447 c -0.0085,0.36859 -0.0291,0.425364 -0.235598,0.650719 -0.144784,0.158007 -0.251788,0.217401 -0.565349,0.313806 -0.09895,0.03042 -0.192761,0.06353 -0.208458,0.07357 -0.04743,0.03034 -0.01915,0.08866 0.08633,0.178012 0.129563,0.109747 0.289206,0.165818 0.394517,0.138561 0.196168,-0.05077 0.497956,-0.199917 0.616608,-0.304728 0.06768,-0.05979 0.177521,-0.115269 0.22649,-0.114403 0.03538,6.13e-4 0.03516,0.0029 -0.003,0.03175 -0.0226,0.01709 -0.02974,0.03108 -0.01587,0.03108 0.04714,0 0.02541,0.05952 -0.06475,0.177326 -0.09875,0.129032 -0.208436,0.214774 -0.354542,0.277142 -0.05239,0.02236 -0.120533,0.05784 -0.151434,0.07885 -0.03636,0.02471 -0.09504,0.03819 -0.166307,0.03819 -0.09681,0 -0.108204,0.0045 -0.09427,0.03704 0.0087,0.02037 0.03257,0.08467 0.05301,0.142875 0.02044,0.05821 0.06739,0.180546 0.104331,0.271861 0.03694,0.09132 0.06203,0.179423 0.05575,0.195791 -0.01477,0.03849 -0.114377,0.03769 -0.182085,-0.0015 -0.13859,-0.08014 -0.150454,-0.08399 -0.168577,-0.05467 -0.02979,0.0482 -0.125851,0.0069 -0.174092,-0.07489 -0.03116,-0.05281 -0.05071,-0.06814 -0.06662,-0.05223 -0.0341,0.0341 -0.08581,0.0271 -0.134416,-0.01818 -0.03597,-0.03351 -0.04626,-0.07745 -0.05827,-0.248708 -0.02798,-0.399129 -0.06606,-0.367333 -0.09865,0.08239 -0.02742,0.378278 -0.04404,0.487043 -0.07605,0.497684 -0.01389,0.0046 -0.05089,-0.03035 -0.08223,-0.0777 z m 0.848818,-1.576599 c 0.07639,-0.05005 0.164763,-0.218876 0.255968,-0.489003 l 0.08071,-0.239052 -0.03683,-0.153441 c -0.05499,-0.229121 -0.152271,-0.414747 -0.289041,-0.551523 -0.134108,-0.134112 -0.293315,-0.228169 -0.318163,-0.187963 -0.01092,0.01768 -0.05066,0.006 -0.137691,-0.04044 -0.136296,-0.07273 -0.227457,-0.08132 -0.3446,-0.03246 -0.09688,0.04041 -0.216279,0.152847 -0.216279,0.203675 0,0.02073 0.02448,0.05373 0.05439,0.07333 0.05082,0.0333 0.0617,0.03333 0.165903,4.86e-4 0.135003,-0.04256 0.160705,-0.04364 0.160705,-0.0068 0,0.04001 -0.202647,0.372594 -0.269676,0.442586 -0.07047,0.07359 -0.143264,0.07977 -0.124538,0.01058 0.03795,-0.140206 0.0611,-0.288371 0.04971,-0.31807 -0.0071,-0.01854 -0.0315,-0.04364 -0.0542,-0.05579 -0.06194,-0.03315 -0.139943,0.03951 -0.226106,0.210606 -0.07196,0.142897 -0.07243,0.145616 -0.04055,0.235928 0.01774,0.05025 0.04179,0.162804 0.05346,0.250116 0.04812,0.360041 0.176016,0.577429 0.37439,0.636338 0.08309,0.02467 0.09568,0.02311 0.152601,-0.01897 0.07567,-0.05594 0.08168,-0.05618 0.136468,-0.0053 0.02403,0.02234 0.07704,0.05066 0.117782,0.06296 0.104972,0.03167 0.391469,0.01414 0.455583,-0.02786 z M 80.198216,64.31096 c 0,-0.02707 0.02458,-0.07232 0.05462,-0.100541 0.04478,-0.04208 0.07718,-0.05148 0.179917,-0.05222 0.101708,-7.41e-4 0.125298,0.0055 0.125298,0.03335 0,0.07899 -0.160274,0.168633 -0.301486,0.168633 -0.04696,0 -0.05835,-0.0096 -0.05835,-0.04923 z m -5.784217,8.138777 0.125781,-0.08542 0.01388,-0.927608 c 0.0076,-0.510184 0.02351,-1.370521 0.03528,-1.911858 0.01177,-0.541338 0.04534,-2.246313 0.07459,-3.788834 0.02925,-1.542521 0.06741,-3.437996 0.08481,-4.212167 0.01739,-0.774171 0.03786,-1.901952 0.04549,-2.50618 l 0.01387,-1.098597 -2.644026,0.01421 c -1.454214,0.0078 -4.358526,0.0234 -6.454026,0.03462 -2.0955,0.01123 -4.613159,0.02649 -5.594797,0.03393 l -1.784797,0.01351 -0.01693,0.04504 c -0.01601,0.0426 -0.149183,0.765468 -0.234474,1.272712 -0.02153,0.128058 -0.06305,0.353464 -0.09226,0.500903 -0.02921,0.147438 -0.07801,0.427842 -0.108439,0.623117 -0.03043,0.195277 -0.06033,0.363146 -0.06645,0.373041 -0.01118,0.0181 -0.0688,0.317229 -0.125462,0.651356 -0.01678,0.09895 -0.03894,0.222779 -0.04925,0.275167 -0.03173,0.161262 -0.148675,0.819611 -0.203035,1.143 -0.02838,0.168804 -0.07159,0.402166 -0.09603,0.518583 -0.04239,0.201926 -0.105795,0.548907 -0.263002,1.439333 -0.03905,0.221192 -0.09549,0.525992 -0.125421,0.677334 -0.02993,0.151342 -0.07906,0.422804 -0.10918,0.60325 -0.03012,0.180446 -0.08794,0.499533 -0.128492,0.709083 -0.04055,0.20955 -0.09687,0.523875 -0.125155,0.6985 -0.02828,0.174625 -0.0755,0.435492 -0.104923,0.579702 -0.02942,0.144213 -0.05349,0.294748 -0.05349,0.334523 0,0.03978 -0.03265,0.221822 -0.07255,0.404548 -0.0399,0.182725 -0.0881,0.437003 -0.107097,0.565061 -0.019,0.128058 -0.04357,0.260644 -0.0546,0.294634 -0.01103,0.03399 -0.03489,0.162576 -0.05302,0.28575 -0.01813,0.123173 -0.05632,0.332617 -0.08488,0.465433 -0.02855,0.132817 -0.04688,0.257343 -0.04073,0.276725 0.0062,0.01938 -0.0019,0.06311 -0.01799,0.09718 -0.01605,0.03407 -0.04066,0.14767 -0.0547,0.252445 -0.03188,0.237911 -0.06925,0.405655 -0.15215,0.683078 -0.03573,0.119577 -0.05993,0.230545 -0.05377,0.246598 0.0062,0.01605 0.05235,0.03573 0.102633,0.04373 0.105023,0.0167 0.408761,0.115187 0.610015,0.197792 0.132902,0.05455 0.15163,0.05647 0.550334,0.05647 0.364862,0 0.430919,-0.0054 0.569358,-0.04689 l 0.156608,-0.04688 0.742975,0.06491 c 0.875934,0.07652 0.524032,0.07142 6.965976,0.100958 4.464783,0.02047 7.752314,0.05052 8.265114,0.07555 0.156902,0.0077 0.295015,0.0219 0.306917,0.03165 0.0119,0.0097 0.04545,0.02256 0.07455,0.02847 0.111722,0.02268 0.207994,-0.0026 0.33295,-0.08747 z M 61.000059,72.19779 c -0.660157,-0.07537 -1.005931,-0.506916 -1.051338,-1.312143 l -0.01338,-0.237291 0.238872,-0.24848 c 0.131381,-0.136662 0.250829,-0.277533 0.265438,-0.313042 0.01461,-0.03551 0.03314,-0.126475 0.04117,-0.202146 0.008,-0.07567 0.03768,-0.294746 0.06588,-0.486833 0.0282,-0.192088 0.07015,-0.506413 0.09323,-0.6985 0.122092,-1.016305 0.198977,-1.505297 0.252373,-1.605069 0.01055,-0.01971 0.07367,-0.05436 0.140265,-0.07699 0.11797,-0.0401 0.12933,-0.04023 0.441166,-0.0051 0.378248,0.04259 0.584856,0.09494 0.608015,0.15407 0.0088,0.02248 0.01667,0.68009 0.01749,1.461366 8.25e-4,0.781279 0.0073,1.463273 0.01451,1.515544 l 0.01303,0.09504 0.09688,-0.09416 c 0.118895,-0.115551 0.172309,-0.137901 0.258106,-0.107992 0.125809,0.04386 0.336125,0.392965 0.354986,0.589248 0.0093,0.09675 0.0059,0.106479 -0.04549,0.129889 -0.0649,0.02957 -0.06537,0.03215 -0.02379,0.131663 0.04118,0.09856 0.04142,0.254639 4.44e-4,0.288648 -0.02372,0.01969 -0.04757,0.02031 -0.09841,0.0026 -0.03691,-0.01286 -0.07898,-0.02339 -0.09349,-0.02339 -0.03608,0 -0.227173,0.480914 -0.224663,0.565394 0.0019,0.06454 -0.0086,0.07399 -0.207753,0.186751 -0.456252,0.258331 -0.757631,0.335014 -1.143544,0.290957 z m 0.3934,-0.140948 c 0.151999,-0.02283 0.229243,-0.04831 0.368471,-0.121561 0.168904,-0.08886 0.180404,-0.09968 0.279296,-0.262917 0.0777,-0.128243 0.111936,-0.21277 0.138788,-0.342634 0.03374,-0.163178 0.03366,-0.176564 -0.0015,-0.250372 -0.02045,-0.04289 -0.06152,-0.109882 -0.09126,-0.148878 l -0.05408,-0.0709 -0.07733,0.03954 c -0.04253,0.02174 -0.219113,0.140532 -0.392403,0.263971 -0.183572,0.130764 -0.335655,0.224435 -0.364388,0.224435 -0.0793,0 -0.181854,-0.108822 -0.37402,-0.396894 -0.206775,-0.309982 -0.271955,-0.386273 -0.330018,-0.386273 -0.04624,0 -0.203367,0.119541 -0.328333,0.249786 l -0.08201,0.08547 0.0738,0.176331 c 0.04059,0.09698 0.09982,0.249948 0.131616,0.339928 0.07646,0.216357 0.167412,0.330655 0.355131,0.446304 0.326948,0.201428 0.373225,0.210991 0.748282,0.154667 z m -0.08081,-1.132944 c 0.311545,-0.156975 0.378326,-0.212425 0.416255,-0.345627 0.08359,-0.293567 0.123603,-1.069623 0.11433,-2.217583 -0.0082,-1.014493 -0.0027,-0.98284 -0.18197,-1.04235 -0.0612,-0.02031 -0.190071,-0.04299 -0.286371,-0.05039 l -0.175092,-0.01346 -0.06954,0.0792 c -0.03825,0.04356 -0.07867,0.103223 -0.08983,0.132579 -0.0223,0.05866 -0.110001,0.723576 -0.209888,1.591321 -0.03541,0.307624 -0.07843,0.652844 -0.0956,0.767152 -0.06193,0.412293 -0.04263,0.553271 0.125546,0.917264 0.09366,0.202713 0.143263,0.26136 0.240498,0.284342 0.0031,7.41e-4 0.09837,-0.04536 0.211667,-0.102448 z m -0.08034,-0.396723 c -0.08516,-0.0567 -0.105251,-0.09473 -0.105251,-0.199178 0,-0.203806 0.164802,-0.283431 0.268135,-0.129549 0.146499,0.218159 0.02855,0.456193 -0.162884,0.328727 z m 0.109589,-1.16521 c -0.03249,-0.01294 -0.129653,-0.210399 -0.129966,-0.264112 -2.12e-4,-0.01948 0.02488,-0.06523 0.05554,-0.101674 0.112583,-0.133796 0.261749,-0.01957 0.261749,0.200442 0,0.148586 -0.07133,0.211546 -0.187327,0.165344 z m -0.0044,-1.37312 c -0.03697,-0.04454 -0.03798,-0.226473 -0.0015,-0.270455 0.04235,-0.05108 0.141844,-0.04449 0.181417,0.01201 0.04723,0.06743 0.04233,0.197578 -0.0094,0.24929 -0.05066,0.05066 -0.132427,0.05505 -0.170517,0.0092 z m 10.660188,4.201744 c -0.164675,-0.02757 -0.30226,-0.07878 -0.541338,-0.201504 -0.202783,-0.104091 -0.22727,-0.123243 -0.279569,-0.218658 -0.03171,-0.05785 -0.08337,-0.117105 -0.115627,-0.132616 -0.123207,-0.05925 -0.240092,-0.318831 -0.239338,-0.531541 6.98e-4,-0.199837 0.02988,-0.248499 0.465832,-0.777082 0.04321,-0.05239 0.08427,-0.125973 0.09125,-0.163523 0.007,-0.03755 0.02723,-0.5519 0.04501,-1.143 0.03381,-1.124009 0.0635,-1.709145 0.09208,-1.814538 0.01167,-0.04303 0.04949,-0.08256 0.121526,-0.127 0.101365,-0.06254 0.112401,-0.06452 0.358584,-0.06446 0.1397,0 0.355708,0.008 0.480018,0.01781 l 0.226016,0.01775 0.03479,0.08696 c 0.03443,0.08605 0.09749,0.676357 0.168913,1.581344 0.03086,0.390989 0.06942,0.799322 0.117877,1.248262 0.02306,0.213636 0.06962,0.322997 0.192066,0.451124 0.0335,0.03505 0.0609,0.07145 0.0609,0.08089 0,0.02432 0.113548,0.209389 0.128471,0.209389 0.0068,0 0.0087,-0.03096 0.0043,-0.06879 -0.0065,-0.05499 0.003,-0.04332 0.04745,0.05821 0.07966,0.182107 0.09499,0.240282 0.09499,0.360538 0,0.431288 -0.326398,0.889879 -0.749304,1.052773 -0.211442,0.08144 -0.573583,0.116394 -0.804858,0.07767 z m -0.243764,-0.372046 0.04207,-0.09815 0.131803,0.01524 c 0.295975,0.03423 0.48548,0.0072 1.123105,-0.160077 0.06807,-0.01786 0.08795,-0.0367 0.123474,-0.116997 0.02329,-0.05264 0.04767,-0.166258 0.05419,-0.252481 0.01098,-0.145231 0.0077,-0.162756 -0.0445,-0.238091 -0.03099,-0.04472 -0.08325,-0.107084 -0.116118,-0.138576 l -0.05976,-0.05726 -0.273211,0.244862 c -0.307209,0.275334 -0.437934,0.3705 -0.508936,0.3705 -0.06616,0 -0.172699,-0.0981 -0.366873,-0.337803 -0.186394,-0.230095 -0.322578,-0.360638 -0.376422,-0.360829 -0.0483,-2.11e-4 -0.368742,0.337575 -0.36068,0.380152 0.0034,0.018 0.0755,0.167638 0.160198,0.332524 0.156314,0.304305 0.317102,0.515123 0.392875,0.515123 0.02351,0 0.05184,-0.03529 0.07878,-0.09815 z m 0.571144,-0.900386 c 0.244116,-0.149352 0.312998,-0.203737 0.354904,-0.280223 0.03128,-0.05709 0.03553,-0.13741 0.0337,-0.636829 -0.0021,-0.57168 -0.01524,-0.797319 -0.09492,-1.629834 -0.07943,-0.829943 -0.122466,-1.000925 -0.267236,-1.061705 -0.112877,-0.04739 -0.454829,-0.02801 -0.533588,0.03025 -0.09347,0.06913 -0.106917,0.127881 -0.127862,0.558468 -0.0322,0.661986 -0.04936,2.210558 -0.02661,2.401871 0.01794,0.150848 0.03523,0.198368 0.14035,0.385667 0.152506,0.271721 0.21099,0.341867 0.285022,0.341867 0.03173,0 0.136934,-0.04877 0.236243,-0.109531 z m -0.18057,-0.431398 c -0.07513,-0.07513 -0.07878,-0.08496 -0.06736,-0.181398 0.02203,-0.185987 0.08422,-0.229345 0.224741,-0.156678 0.06101,0.03155 0.128139,0.176259 0.128139,0.276246 0,0.05847 -0.05879,0.111809 -0.141472,0.128344 -0.05498,0.011 -0.07645,0.0011 -0.144047,-0.06651 z m 0.02608,-1.133015 c -0.05075,-0.02955 -0.12156,-0.173665 -0.12156,-0.247388 0,-0.08602 0.06999,-0.153001 0.159887,-0.153001 0.06029,0 0.08114,0.01242 0.115513,0.06879 0.05092,0.08351 0.05561,0.241169 0.0092,0.307499 -0.03498,0.04995 -0.101672,0.05981 -0.16299,0.0241 z m -0.120142,-1.371406 c -0.01168,-0.02182 -0.02718,-0.07684 -0.03444,-0.12225 -0.01465,-0.0916 0.02711,-0.162152 0.110217,-0.186212 0.06251,-0.0181 0.134472,0.09903 0.134472,0.218876 0,0.07497 -0.008,0.09104 -0.05429,0.108628 -0.08194,0.03115 -0.132387,0.02499 -0.155954,-0.01904 z m -3.049945,-2.469953 c -0.02159,-0.05679 -0.004,-0.111074 0.05956,-0.183951 0.04334,-0.04968 0.02578,-0.06227 -0.113073,-0.08111 -0.140951,-0.01913 -0.178795,-0.04646 -0.178795,-0.129115 0,-0.08173 -0.02373,-0.123152 -0.181925,-0.317532 -0.07286,-0.08952 -0.152019,-0.206969 -0.175916,-0.260993 l -0.04345,-0.09823 0.04474,-0.08826 c 0.08321,-0.164143 0.142248,-0.163612 0.19231,0.0017 0.04391,0.145021 0.152857,0.298916 0.273481,0.386296 0.129496,0.09381 0.335261,0.08552 0.335261,-0.0135 0,-0.01439 -0.05302,-0.08631 -0.11783,-0.159809 -0.174071,-0.19743 -0.217327,-0.295302 -0.244539,-0.553279 -0.02878,-0.272862 -0.0044,-0.449405 0.08794,-0.636992 0.07562,-0.153605 0.266238,-0.395527 0.353938,-0.449195 0.03194,-0.01955 0.09141,-0.05705 0.132154,-0.08335 0.116245,-0.07503 0.285697,-0.114738 0.489583,-0.114738 0.36449,0 0.702833,0.161302 0.879331,0.419214 0.117189,0.171247 0.155086,0.303998 0.155086,0.543264 0,0.46584 -0.190362,0.788818 -0.624416,1.059412 -0.08149,0.05081 -0.195792,0.103226 -0.254,0.116493 -0.122092,0.02783 -0.340623,0.0123 -0.502216,-0.03569 -0.102015,-0.03029 -0.111034,-0.02994 -0.136872,0.0054 -0.03903,0.05337 -0.03434,0.144409 0.0094,0.182186 0.11342,0.09801 0.387653,0.18684 0.735542,0.238262 0.414136,0.06121 0.574063,0.135147 0.402167,0.185918 -0.08986,0.02654 -0.561425,0.0029 -0.758186,-0.03794 l -0.165522,-0.03439 -0.07903,0.05477 c -0.09594,0.06649 -0.159211,0.06961 -0.201017,0.0099 -0.03113,-0.04444 -0.03216,-0.04405 -0.114341,0.04233 -0.06783,0.0713 -0.09711,0.08718 -0.160813,0.08718 -0.06413,0 -0.08153,-0.0096 -0.09853,-0.0543 z m 1.244303,-0.892906 c 0.123102,-0.06199 0.216724,-0.154525 0.216724,-0.214206 0,-0.01998 0.04557,-0.07935 0.101272,-0.131915 0.06436,-0.06074 0.110649,-0.126882 0.127,-0.181456 0.057,-0.190246 0.01433,-0.470088 -0.112395,-0.737131 -0.09696,-0.204318 -0.160384,-0.259876 -0.329123,-0.288303 -0.07764,-0.01308 -0.172335,-0.04646 -0.220671,-0.07779 -0.100764,-0.06531 -0.282994,-0.08595 -0.420057,-0.04758 -0.160212,0.04486 -0.351845,0.231466 -0.430147,0.418872 -0.04131,0.09886 -0.0487,0.779953 -0.0099,0.912751 0.01748,0.05985 0.06266,0.128107 0.128099,0.193546 0.125992,0.125992 0.284355,0.1732 0.425147,0.126735 0.08792,-0.02902 0.09163,-0.02817 0.232785,0.05346 0.07889,0.04562 0.162473,0.03788 0.291276,-0.02699 z m -0.427302,-0.19327 c -0.01864,-0.03017 0.0048,-0.108355 0.03252,-0.108355 0.01136,0 0.06647,-0.04286 0.122477,-0.09525 0.151621,-0.141823 0.213857,-0.126062 0.213857,0.05416 0,0.06287 -0.01165,0.09008 -0.04908,0.114611 -0.06416,0.04204 -0.299477,0.06767 -0.319774,0.03483 z M 69.431857,63.54489 c -0.03768,-0.0982 0.189268,-0.370036 0.30894,-0.370036 0.03986,0 0.02341,0.055 -0.03202,0.107074 -0.02983,0.02802 -0.07423,0.08445 -0.09867,0.125398 -0.05383,0.09018 -0.123074,0.169695 -0.147776,0.169695 -0.01,0 -0.02369,-0.01446 -0.03047,-0.03213 z m -15.596759,8.795598 c 0.465427,-0.207324 0.463457,-0.205112 0.540751,-0.606997 0.159393,-0.828775 0.251629,-1.32936 0.284105,-1.541886 0.01957,-0.128058 0.08175,-0.466196 0.138176,-0.751417 0.05643,-0.285221 0.127902,-0.670983 0.158829,-0.85725 0.03093,-0.186267 0.127531,-0.724429 0.214676,-1.195917 0.08715,-0.471487 0.181924,-0.995362 0.210619,-1.164166 0.0287,-0.168805 0.05631,-0.321205 0.06137,-0.338667 0.01232,-0.04256 0.148774,-0.787487 0.188046,-1.026584 0.05526,-0.336404 0.497601,-2.733867 0.523968,-2.839855 0.014,-0.05627 0.06607,-0.181572 0.115719,-0.278446 0.108904,-0.212507 0.102722,-0.185259 0.38024,-1.675778 0.122449,-0.657658 0.241848,-1.270988 0.265328,-1.362953 0.02446,-0.09581 0.04091,-0.222417 0.03852,-0.296505 -0.0023,-0.07111 0.0089,-0.185378 0.02493,-0.253922 0.0283,-0.121175 0.0278,-0.125493 -0.01821,-0.156038 -0.06208,-0.04122 -0.05975,-0.07716 0.0082,-0.126655 0.04257,-0.03101 0.05206,-0.05129 0.04073,-0.087 -0.02937,-0.09253 -0.09685,-0.112586 -0.418653,-0.12442 -0.447193,-0.01644 -4.905862,0.03513 -5.29835,0.06129 -0.185707,0.01238 -0.383451,0.02146 -0.43943,0.0202 -0.05598,-0.0013 -0.130046,0.01231 -0.164594,0.03018 -0.05242,0.02711 -0.11684,0.03007 -0.389251,0.01792 -0.285443,-0.01273 -0.333221,-0.01012 -0.380448,0.02083 -0.06073,0.03979 -0.06832,0.102009 -0.02226,0.18258 0.01664,0.0291 0.03059,0.05817 0.031,0.0646 4.23e-4,0.0064 -0.05553,0.0024 -0.124308,-0.009 l -0.125056,-0.02068 -0.110067,0.09896 c -0.08816,0.07926 -0.125406,0.09902 -0.187152,0.09928 -0.0424,2.11e-4 -0.08849,0.0076 -0.102419,0.01643 -0.01393,0.0089 -0.04804,0.112414 -0.0758,0.230126 -0.03225,0.136765 -0.07282,0.247763 -0.11238,0.307495 -0.03405,0.05141 -0.07984,0.162573 -0.101742,0.24703 -0.0334,0.12878 -0.03545,0.161741 -0.01268,0.204281 0.01725,0.03224 0.02267,0.08773 0.01486,0.152229 -0.01416,0.116988 -0.547031,2.458636 -0.670951,2.94842 -0.04566,0.180445 -0.09381,0.370945 -0.10701,0.423333 -0.0519,0.205952 -0.10998,0.395967 -0.148808,0.486833 -0.02239,0.05239 -0.0649,0.223838 -0.09448,0.381 -0.02958,0.157163 -0.06751,0.327421 -0.0843,0.378352 -0.01679,0.05093 -0.02524,0.10115 -0.01878,0.1116 0.0065,0.01045 -0.003,0.06403 -0.02104,0.119066 -0.0308,0.094 -0.15977,0.669127 -0.24554,1.094899 -0.02111,0.104775 -0.05793,0.266848 -0.08184,0.360162 -0.0239,0.09331 -0.06256,0.264763 -0.08589,0.381 -0.02334,0.116236 -0.0578,0.278013 -0.07658,0.359505 -0.01878,0.08149 -0.04745,0.214842 -0.0637,0.296333 -0.01625,0.08149 -0.04516,0.200554 -0.06424,0.264584 -0.01908,0.06403 -0.0351,0.135466 -0.0356,0.15875 -5.08e-4,0.02328 -0.01811,0.118533 -0.03914,0.211666 -0.07369,0.326388 -0.087,0.386102 -0.233701,1.04775 -0.0813,0.366713 -0.176543,0.800101 -0.211643,0.963084 -0.0351,0.162983 -0.09102,0.410633 -0.124272,0.550333 -0.03325,0.1397 -0.08995,0.396875 -0.126005,0.5715 -0.03606,0.174625 -0.104153,0.484188 -0.151331,0.687917 -0.04718,0.203729 -0.112171,0.503767 -0.144431,0.66675 l -0.05865,0.296334 -0.209241,-0.0055 c -0.115081,-0.003 -0.26877,-0.01094 -0.34153,-0.01756 -0.123948,-0.01128 -0.132292,-0.01539 -0.132292,-0.06517 0,-0.02922 0.04183,-0.268972 0.09297,-0.532774 0.125108,-0.645459 0.160261,-0.830161 0.196033,-1.029973 0.01667,-0.09313 0.1213,-0.531283 0.232505,-0.973666 0.111204,-0.442384 0.324727,-1.294871 0.474498,-1.894417 0.149769,-0.599546 0.319864,-1.271059 0.377988,-1.49225 0.05812,-0.221192 0.178361,-0.702205 0.267191,-1.068917 0.256836,-1.060281 1.743208,-7.006525 1.756977,-7.028803 0.01576,-0.0255 -0.103702,-0.146698 -0.144591,-0.146698 -0.01679,0 -0.05435,0.01874 -0.08347,0.04164 -0.06915,0.0544 -0.03814,-0.06256 -0.939866,3.545104 -0.415961,1.664206 -0.759711,3.015569 -0.763892,3.003028 -0.01259,-0.03777 0.135374,-0.909701 0.261591,-1.541524 0.116325,-0.582306 0.296075,-1.257538 0.473312,-1.778001 0.04757,-0.1397 0.110443,-0.3302 0.139712,-0.423333 0.08879,-0.282539 0.305742,-1.156161 0.319327,-1.285875 0.01256,-0.119913 0.01194,-0.121708 -0.04167,-0.121708 -0.0614,0 -0.120085,-0.04882 -0.122671,-0.102053 -0.0064,-0.131098 -0.112558,0.310851 -0.802636,3.340553 -0.141861,0.622829 -0.295726,1.294342 -0.34192,1.49225 -0.08699,0.372686 -0.397426,1.717868 -0.69364,3.005667 -0.09372,0.407458 -0.199718,0.859896 -0.235547,1.005417 -0.03583,0.145521 -0.07787,0.331258 -0.09343,0.41275 -0.03095,0.162086 -0.422569,1.875959 -0.510261,2.233083 -0.03001,0.122238 -0.105514,0.446088 -0.167773,0.719668 -0.06226,0.273579 -0.134273,0.585806 -0.160029,0.693839 -0.02575,0.108032 -0.03998,0.203282 -0.03162,0.211667 0.0084,0.0084 0.278305,0.01806 0.599865,0.02151 0.341042,0.0037 0.595078,0.01492 0.609668,0.02703 0.0164,0.01361 0.0777,0.01259 0.178086,-0.003 0.105539,-0.01637 0.387307,-0.01933 0.907311,-0.0095 1.616321,0.03051 3.592077,0.04664 5.01932,0.041 l 1.49225,-0.0059 z m 49.556462,0.04903 c 1.0623,-0.0078 1.93146,-0.02136 1.93146,-0.03026 0,-0.0089 -0.0284,-0.139237 -0.0632,-0.289637 -0.0348,-0.150401 -0.1258,-0.615431 -0.20231,-1.033399 -0.16487,-0.900576 -0.17397,-0.94108 -0.22072,-0.982192 -0.0516,-0.04534 -0.13761,-0.449782 -0.10762,-0.50581 0.0316,-0.05899 -0.0108,-0.251322 -0.0574,-0.26029 -0.0449,-0.0086 -0.0905,-0.202237 -0.0598,-0.253952 0.0157,-0.02649 -0.0274,-0.227328 -0.16576,-0.772583 -0.26541,-1.045892 -0.31014,-1.238883 -0.92377,-3.985866 -0.30297,-1.356254 -0.61232,-2.737379 -0.68744,-3.069167 -0.18466,-0.815573 -0.3171,-1.473839 -0.50656,-2.517775 -0.0876,-0.482547 -0.16734,-0.885467 -0.17725,-0.895378 -0.0216,-0.02162 -8.20737,0.01099 -8.229164,0.03278 -0.01355,0.01355 0.119654,0.852299 0.257832,1.623539 0.02816,0.157162 0.09469,0.538162 0.14784,0.846666 0.05316,0.308505 0.158958,0.884767 0.235118,1.280584 0.07616,0.395817 0.171073,0.895879 0.210917,1.11125 0.03984,0.215371 0.0913,0.482071 0.114349,0.592667 0.02305,0.110595 0.0662,0.348721 0.09589,0.529166 0.08788,0.534107 0.215297,1.194038 0.369856,1.915584 0.239378,1.117532 0.333404,1.659149 0.453811,2.614083 0.141683,1.123677 0.161078,1.264148 0.254271,1.841501 0.05167,0.320145 0.109664,0.724154 0.128865,0.897794 0.03863,0.349363 0.135557,0.860364 0.181144,0.955011 0.01616,0.03354 0.04842,0.06615 0.07171,0.07247 0.07559,0.0205 0.154095,0.0862 0.247235,0.20693 l 0.0913,0.11834 2.338982,-0.01398 c 1.286444,-0.0077 3.208134,-0.02032 4.270434,-0.02806 z m 2.34904,-0.05478 c 0.0254,-0.03256 0.0692,-0.252011 0.0692,-0.34624 0,-0.07883 -0.033,-0.113375 -0.0518,-0.0542 -0.007,0.02186 -0.0501,0.05178 -0.0969,0.06723 -0.09,0.02972 -0.10496,0.05948 -0.13522,0.26971 l -0.013,0.08996 h 0.10349 c 0.0577,0 0.11261,-0.01171 0.1241,-0.02646 z m -9.735149,-0.337609 c 0.01397,-0.01397 0.0254,-0.05299 0.0254,-0.08672 0,-0.06367 -0.116139,-0.737237 -0.349283,-2.025718 -0.07478,-0.413279 -0.203543,-1.132417 -0.286138,-1.598083 -0.0826,-0.465667 -0.178232,-0.999067 -0.212522,-1.185334 -0.167921,-0.912112 -0.389657,-2.142763 -0.495791,-2.751667 -0.06493,-0.372533 -0.207803,-1.172633 -0.317487,-1.778 -0.109686,-0.605366 -0.262179,-1.462617 -0.338874,-1.905 -0.174534,-1.006699 -0.180177,-1.035042 -0.201699,-1.012971 -0.01759,0.01804 0.05626,0.572374 0.116622,0.875388 0.01739,0.08731 0.0655,0.358775 0.106898,0.60325 0.0414,0.244475 0.117161,0.69215 0.168359,0.994833 0.0512,0.302684 0.123055,0.721784 0.159679,0.931334 0.147219,0.842276 0.259749,1.499957 0.391148,2.286 0.0759,0.454025 0.171156,1.011237 0.211692,1.23825 0.135035,0.756253 0.220595,1.256587 0.264232,1.545167 0.02377,0.157162 0.04792,0.298822 0.05369,0.314799 0.0138,0.03828 0.187352,1.032859 0.264558,1.516118 0.03348,0.20955 0.07998,0.481012 0.103344,0.60325 0.05919,0.309687 0.186339,1.085316 0.202993,1.23825 0.01308,0.120104 0.05506,0.22225 0.09134,0.22225 0.009,0 0.02787,-0.01143 0.04184,-0.0254 z M 55.292503,71.451022 c 0.0529,-0.273579 0.134997,-0.726017 0.182433,-1.005417 0.04744,-0.2794 0.09473,-0.536575 0.105099,-0.5715 0.01037,-0.03493 0.02481,-0.115888 0.03209,-0.179917 0.0073,-0.06403 0.04709,-0.283104 0.08846,-0.486833 0.04136,-0.203729 0.102103,-0.532342 0.134975,-0.73025 0.07763,-0.467396 0.384592,-2.170835 0.467246,-2.592917 0.03534,-0.180446 0.09699,-0.522624 0.136997,-0.760396 0.04001,-0.237773 0.09606,-0.552098 0.124557,-0.6985 0.02849,-0.146403 0.09146,-0.490025 0.139927,-0.763604 0.04847,-0.27358 0.115286,-0.63553 0.14849,-0.804334 0.0332,-0.168804 0.0752,-0.402166 0.09333,-0.518583 0.01813,-0.116417 0.05617,-0.330729 0.08453,-0.47625 0.02836,-0.145521 0.08148,-0.436034 0.11804,-0.645584 0.104631,-0.599694 0.255312,-1.41529 0.264103,-1.429514 0.0044,-0.0071 0.02677,-0.140828 0.04971,-0.297131 0.02294,-0.156303 0.0659,-0.398488 0.09547,-0.538188 0.07348,-0.347178 0.140096,-0.747711 0.140096,-0.842389 0,-0.06098 -0.0083,-0.07836 -0.03762,-0.07836 -0.04695,0 -0.13171,0.05778 -0.13171,0.08979 0,0.01314 -0.01786,0.04356 -0.03968,0.06759 -0.04768,0.0525 -0.09972,0.208991 -0.127167,0.382365 -0.01106,0.06985 -0.03043,0.153814 -0.04304,0.186586 -0.01262,0.03277 -0.02294,0.09551 -0.02294,0.139414 0,0.0439 -0.02832,0.216631 -0.06293,0.383835 -0.03461,0.167204 -0.06887,0.361643 -0.07613,0.432085 -0.0073,0.07044 -0.03133,0.20558 -0.05349,0.3003 -0.03929,0.16796 -0.114192,0.582566 -0.221268,1.22478 -0.02911,0.174625 -0.095,0.531813 -0.146422,0.79375 -0.124001,0.631713 -0.161908,0.834069 -0.182398,0.973667 -0.0094,0.06403 -0.04047,0.245004 -0.06904,0.402167 -0.02858,0.157162 -0.08125,0.447675 -0.117062,0.645583 -0.03581,0.197908 -0.108662,0.597958 -0.1619,0.889 -0.05324,0.291042 -0.128791,0.705379 -0.167898,0.92075 -0.03911,0.215371 -0.08099,0.434446 -0.09308,0.486834 -0.02589,0.112253 -0.08298,0.456929 -0.110415,0.66675 -0.01066,0.08149 -0.02855,0.171979 -0.03976,0.201083 -0.02053,0.05328 -0.07438,0.346613 -0.106858,0.582083 -0.0096,0.06985 -0.03285,0.191356 -0.05159,0.270013 -0.01874,0.07866 -0.05297,0.269157 -0.07607,0.423333 -0.04226,0.282059 -0.06161,0.384472 -0.117159,0.620017 -0.01661,0.07042 -0.04482,0.232238 -0.0627,0.359609 -0.01788,0.12737 -0.04656,0.293594 -0.06373,0.369388 -0.01717,0.07579 -0.04418,0.214007 -0.06001,0.307141 -0.02995,0.176144 -0.142653,0.79045 -0.243538,1.327427 l -0.05851,0.31143 0.05868,0.09427 c 0.0606,0.09737 0.116831,0.128765 0.159289,0.08894 0.01343,-0.0126 0.06771,-0.246745 0.120606,-0.520324 z m 20.246456,0.425935 c 0.03814,-0.03814 0.0404,-0.127966 0.05625,-2.238376 0.0091,-1.209254 0.0174,-4.311151 0.01848,-6.893103 0.0017,-4.151239 -0.0017,-4.696784 -0.02979,-4.714552 -0.01746,-0.01105 -0.07602,-0.02024 -0.130125,-0.02041 l -0.09837,-3.17e-4 -0.01215,0.280458 c -0.01116,0.257516 -0.0352,3.993096 -0.04199,6.524625 -0.0016,0.582084 -5.29e-4,2.418028 0.0023,4.079876 l 0.0052,3.021536 h 0.09525 c 0.06495,0 0.107889,-0.01264 0.134982,-0.03973 z M 75.199636,70.56217 c 0.01064,-0.553062 0.01317,-1.09129 0.0056,-1.196065 l -0.01374,-0.1905 -0.01541,0.232833 c -0.02598,0.392462 -0.06389,2.35657 -0.04626,2.396565 0.03279,0.0744 0.05053,-0.241487 0.06979,-1.242833 z m 30.261674,0.980209 c -0.008,-0.0455 -0.0219,-0.06802 -0.0335,-0.05644 -0.0116,0.01158 -0.01,0.05279 0.005,0.103298 0.0278,0.09856 0.0497,0.06327 0.029,-0.04686 z m -0.0105,-0.473898 c 0.0544,-0.107775 0.0582,-0.125459 0.0271,-0.125459 -0.0199,0 -0.0628,-0.0255 -0.0953,-0.05667 -0.0325,-0.03116 -0.0651,-0.05074 -0.0723,-0.0435 -0.02,0.01996 0.0377,0.375448 0.0588,0.362418 0.0101,-0.0062 0.0468,-0.0678 0.0817,-0.136798 z m -0.11742,-0.759712 c 0.0981,-0.118042 0.10407,-0.0664 -0.11709,-1.016747 -0.0935,-0.401638 -0.29825,-1.290367 -0.45508,-1.974952 -0.15683,-0.684587 -0.3235,-1.408488 -0.37038,-1.608667 -0.24175,-1.032161 -0.38903,-1.64272 -0.39486,-1.636891 -0.01,0.0099 0.23894,1.479646 0.28725,1.696259 0.12757,0.57208 0.20404,0.901527 0.27759,1.195917 0.0451,0.180446 0.11629,0.490008 0.15823,0.687917 0.0419,0.197908 0.12302,0.574146 0.18017,0.836083 0.0571,0.261938 0.11472,0.542925 0.12793,0.624417 0.0132,0.08149 0.0327,0.176742 0.0434,0.211667 0.0296,0.09713 0.14665,0.895659 0.14665,1.000781 0,0.05106 0.009,0.08965 0.0188,0.08577 0.0104,-0.0039 0.0542,-0.04958 0.0974,-0.101557 z M 75.203674,68.5435 c -0.01515,-0.01515 -0.02186,0.03672 -0.02166,0.167496 4.23e-4,0.280596 0.03023,0.340037 0.03753,0.07486 0.0036,-0.132288 -0.0027,-0.229189 -0.01588,-0.242359 z M 95.61901,68.208218 c -0.08489,-0.666252 -0.191531,-1.309634 -0.318615,-1.922251 -0.106657,-0.514149 -0.270419,-1.332412 -0.370011,-1.848821 -0.03771,-0.195564 -0.05332,-0.24471 -0.07093,-0.223362 -0.004,0.0049 0.01992,0.156458 0.05315,0.336904 0.03323,0.180446 0.141777,0.785283 0.241209,1.344083 0.09943,0.5588 0.222568,1.239838 0.273634,1.513417 0.05106,0.273579 0.116669,0.640292 0.145788,0.814917 0.02912,0.174625 0.06021,0.360362 0.0691,0.41275 0.01039,0.06127 0.01887,0.07861 0.02378,0.04861 0.0042,-0.02565 -0.017,-0.239962 -0.04711,-0.47625 z M 75.245228,67.85019 c 0,-0.128058 -0.0083,-0.227721 -0.01838,-0.221475 -0.02807,0.01735 -0.04868,0.250427 -0.03277,0.370427 0.02363,0.178122 0.05115,0.09798 0.05115,-0.148952 z m -0.0055,-0.806297 c -0.0041,-0.07322 -0.0076,-0.01882 -0.0076,0.120878 0,0.1397 0.0033,0.199604 0.0075,0.133122 0.0042,-0.06649 0.0042,-0.180785 0,-0.254 z m -0.001,-0.730678 c -0.0054,-0.02059 -0.01011,-0.0089 -0.01054,0.02606 -4.23e-4,0.03492 0.004,0.05178 0.0098,0.03744 0.0058,-0.01433 0.0062,-0.0429 7.83e-4,-0.0635 z m 28.867332,-0.149219 c -0.0728,-0.333747 -0.33278,-1.433703 -0.34091,-1.442212 -0.031,-0.03244 0.0738,0.459268 0.29006,1.360518 0.073,0.304156 0.11358,0.369407 0.0508,0.08169 z m -9.249507,-2.1266 c -0.06902,-0.447108 -0.266558,-1.503039 -0.278879,-1.49072 -0.01224,0.01224 0.226018,1.42707 0.25995,1.543637 0.02056,0.07065 0.03275,0.03659 0.01893,-0.05292 z m 8.984827,0.02521 c 0,-0.02397 -0.009,-0.03795 -0.0202,-0.03107 -0.0111,0.0069 -0.0149,0.02649 -0.008,0.04358 0.0168,0.04375 0.0286,0.0386 0.0286,-0.01251 z m -0.13702,-0.711203 c -0.10715,-0.575498 -0.29116,-1.381842 -0.32883,-1.440952 -0.0192,-0.03009 -0.0212,-0.02295 -0.0102,0.03674 0.007,0.04074 0.0219,0.135995 0.032,0.211666 0.0101,0.07567 0.0323,0.170921 0.0493,0.211667 0.0394,0.09418 0.33125,1.435149 0.33125,1.52186 0,0.0051 0.005,0.0037 0.0122,-0.003 0.007,-0.0067 -0.0319,-0.248797 -0.0857,-0.537985 z m -0.41217,-2.371638 c -0.0139,-0.07911 -0.0435,-0.220028 -0.0659,-0.313161 -0.0224,-0.09313 -0.10271,-0.440796 -0.17842,-0.772583 -0.0757,-0.331788 -0.17567,-0.765175 -0.22213,-0.963084 -0.0465,-0.197908 -0.10853,-0.469371 -0.13795,-0.60325 -0.0294,-0.133879 -0.0682,-0.287928 -0.0861,-0.342328 -0.0321,-0.09742 -0.0828,-0.162556 -0.10736,-0.137984 -0.0238,0.02382 0.12634,0.726622 0.35588,1.665646 0.12664,0.518054 0.2434,0.984779 0.25947,1.037166 0.0915,0.298527 0.19107,0.590047 0.19881,0.582317 0.005,-0.0049 -0.002,-0.07364 -0.0163,-0.152739 z M 48.840794,59.847649 c 0.01168,-0.08536 0.01035,-0.08858 -0.02072,-0.05013 -0.01826,0.0226 -0.0332,0.06189 -0.0332,0.08731 0,0.02543 -0.0048,0.07837 -0.01078,0.117664 l -0.01078,0.07144 0.03149,-0.06754 c 0.01732,-0.03715 0.03711,-0.108585 0.04397,-0.15875 z m 44.915874,-0.682623 c -0.07326,-0.350234 -0.116023,-0.485538 -0.08737,-0.276422 0.03825,0.279154 0.09752,0.601904 0.120792,0.657684 0.0547,0.131126 0.04095,-0.02568 -0.03342,-0.381262 z m -0.160992,-0.89252 c -0.06271,-0.340752 -0.08363,-0.424462 -0.08362,-0.334639 7e-6,0.06165 0.08087,0.537538 0.107038,0.629931 0.04958,0.175048 0.03931,0.04555 -0.02342,-0.295292 z M 120.43249,72.4679 c -0.13948,-0.02547 -0.31883,-0.07914 -0.50963,-0.152507 -0.14784,-0.05685 -0.17228,-0.07468 -0.24871,-0.181405 -0.0466,-0.0651 -0.0847,-0.126249 -0.0847,-0.135894 0,-0.0097 -0.0339,-0.06192 -0.0753,-0.116161 -0.14538,-0.190454 -0.16348,-0.246348 -0.17379,-0.536745 -0.0138,-0.387796 0.0132,-0.537779 0.14437,-0.801812 0.12847,-0.258672 0.22726,-0.366145 0.42623,-0.463681 0.26129,-0.128082 0.36133,-0.152714 0.61841,-0.152254 0.40361,7.19e-4 0.66466,0.05389 0.85158,0.173431 0.24292,0.155361 0.30882,0.218582 0.45428,0.435824 l 0.14603,0.218088 v 0.218781 c 0,0.25893 -0.0441,0.512498 -0.12729,0.731457 -0.0332,0.08731 -0.0656,0.183873 -0.0721,0.214577 -0.0129,0.06085 -0.33457,0.37809 -0.38336,0.37809 -0.0159,0 -0.0366,0.01357 -0.0459,0.03015 -0.009,0.01658 -0.0931,0.05589 -0.18626,0.08735 -0.13425,0.04535 -0.21756,0.0586 -0.40216,0.06398 -0.12806,0.0037 -0.27731,-0.0013 -0.33166,-0.01127 z m 0.61775,-0.343482 c 0.39771,-0.146236 0.63946,-0.494481 0.60455,-0.870862 -0.0319,-0.343673 -0.0679,-0.465216 -0.17675,-0.596284 -0.14377,-0.173129 -0.60984,-0.433917 -0.77548,-0.433917 -0.15712,0 -0.41417,0.04287 -0.58989,0.09838 -0.2118,0.06691 -0.30219,0.147009 -0.40857,0.362056 -0.0768,0.155205 -0.0816,0.176748 -0.0896,0.402432 -0.0106,0.297616 5.3e-4,0.356895 0.092,0.489943 0.0404,0.05867 0.0734,0.115123 0.0734,0.125452 0,0.05948 0.38702,0.350713 0.598,0.449993 0.12729,0.0599 0.47356,0.0459 0.67234,-0.02719 z m -91.006434,0.329756 c -0.219227,-0.02177 -0.47625,-0.07721 -0.47625,-0.102711 0,-0.01484 -0.03856,-0.0525 -0.08568,-0.08368 -0.208528,-0.137996 -0.317102,-0.270639 -0.368476,-0.450156 -0.01606,-0.05611 -0.04883,-0.157656 -0.07282,-0.225654 -0.05999,-0.170002 -0.115885,-0.568135 -0.09943,-0.708163 0.03297,-0.280476 0.336624,-0.650907 0.67353,-0.821631 0.177063,-0.08972 0.356163,-0.119436 0.736043,-0.122113 0.348535,-0.0025 0.349589,-0.0023 0.515156,0.06644 0.267092,0.11092 0.379953,0.197517 0.492269,0.377724 0.05391,0.08649 0.127896,0.230932 0.164419,0.320984 0.06538,0.161197 0.06639,0.169131 0.06519,0.512978 -0.0014,0.395697 -0.01778,0.463625 -0.155562,0.644198 -0.045,0.05897 -0.101877,0.147178 -0.126399,0.196016 -0.02452,0.04884 -0.09466,0.141726 -0.155871,0.206413 l -0.111288,0.117617 -0.201084,0.03077 c -0.212282,0.03249 -0.651116,0.05514 -0.79375,0.04097 z m 0.488108,-0.307177 c 0.286292,-0.1065 0.532371,-0.306843 0.677031,-0.551199 l 0.104504,-0.176526 0.0078,-0.240492 c 0.0077,-0.237919 0.007,-0.242644 -0.07348,-0.441699 -0.126964,-0.314158 -0.242547,-0.392693 -0.707845,-0.480958 -0.308013,-0.05843 -0.365682,-0.04996 -0.653159,0.09594 -0.289763,0.147058 -0.462562,0.294695 -0.535441,0.457475 -0.03804,0.08496 -0.04709,0.153298 -0.05489,0.414492 l -0.0093,0.312759 0.06595,0.133964 c 0.08425,0.171139 0.234449,0.312014 0.433392,0.406491 0.287401,0.136485 0.510053,0.157319 0.745452,0.06975 z"
       id="path879" />
  </g>
</svg>
